<?xml version="1.0" encoding="UTF-8" standalone="no"?>
<svg
   xmlns:dc="http://purl.org/dc/elements/1.1/"
   xmlns:cc="http://creativecommons.org/ns#"
   xmlns:rdf="http://www.w3.org/1999/02/22-rdf-syntax-ns#"
   xmlns:svg="http://www.w3.org/2000/svg"
   xmlns="http://www.w3.org/2000/svg"
   version="1.1"
   id="svg2"
   viewBox="0 0 100 100"
   height="100"
   width="100">
  <defs
     id="defs4" />
  <metadata
     id="metadata7">
    <rdf:RDF>
      <cc:Work
         rdf:about="">
        <dc:format>image/svg+xml</dc:format>
        <dc:type
           rdf:resource="http://purl.org/dc/dcmitype/StillImage" />
        <dc:title></dc:title>
      </cc:Work>
    </rdf:RDF>
  </metadata>
  <g
     transform="translate(0,-952.36216)"
     id="layer1">
    <g
       id="text4140"
       style="font-style:normal;font-variant:normal;font-weight:600;font-stretch:normal;font-size:21.90322495px;line-height:125%;font-family:DIN;-inkscape-font-specification:'DIN Semi-Bold';text-align:start;writing-mode:lr-tb;text-anchor:start;opacity:1;fill:#000000;fill-opacity:1;stroke:#ffffff;stroke-width:2;stroke-linecap:round;stroke-linejoin:round;stroke-miterlimit:4;stroke-dasharray:none;stroke-dashoffset:0;stroke-opacity:1"
       transform="scale(1.00051,0.99949025)">
      <path
         id="path4168"
         style="font-style:normal;font-variant:normal;font-weight:normal;font-stretch:normal;font-family:'Droid Sans Mono';-inkscape-font-specification:'Droid Sans Mono';stroke:none;stroke-width:2"
         d="m 11.697342,983.32837 -1.8823082,0 0,-9.76448 q 0,-1.30478 0.085559,-3.86087 -0.4171024,0.45989 -1.294087,1.20853 l -1.5721553,1.29409 -1.0374086,-1.31548 4.0961597,-3.19778 1.60424,0 0,15.63599 z" />
      <path
         id="path4170"
         style="font-style:normal;font-variant:normal;font-weight:normal;font-stretch:normal;font-family:'Droid Sans Mono';-inkscape-font-specification:'Droid Sans Mono';stroke:none;stroke-width:2"
         d="m 23.269261,983.54227 q -2.44914,0 -3.711142,-2.06412 -1.262003,-2.07482 -1.262003,-5.98917 0,-8.04259 4.973145,-8.04259 2.481224,0 3.743227,2.07482 1.272697,2.06412 1.272697,5.96777 0,8.05329 -5.015924,8.05329 z m 0,-1.65772 q 1.572155,0 2.310106,-1.49729 0.73795,-1.50798 0.73795,-4.89828 0,-3.3689 -0.73795,-4.86619 -0.737951,-1.50799 -2.310106,-1.50799 -1.550766,0 -2.278021,1.49729 -0.716561,1.4866 -0.716561,4.87689 0,3.40099 0.716561,4.89828 0.727255,1.49729 2.278021,1.49729 z" />
      <path
         id="path4172"
         style="font-style:normal;font-variant:normal;font-weight:normal;font-stretch:normal;font-family:'Droid Sans Mono';-inkscape-font-specification:'Droid Sans Mono';stroke:none;stroke-width:2"
         d="m 36.40264,983.54227 q -2.44914,0 -3.711142,-2.06412 -1.262003,-2.07482 -1.262003,-5.98917 0,-8.04259 4.973145,-8.04259 2.481224,0 3.743227,2.07482 1.272697,2.06412 1.272697,5.96777 0,8.05329 -5.015924,8.05329 z m 0,-1.65772 q 1.572155,0 2.310105,-1.49729 0.737951,-1.50798 0.737951,-4.89828 0,-3.3689 -0.737951,-4.86619 -0.73795,-1.50799 -2.310105,-1.50799 -1.550766,0 -2.278021,1.49729 -0.716561,1.4866 -0.716561,4.87689 0,3.40099 0.716561,4.89828 0.727255,1.49729 2.278021,1.49729 z" />
      <path
         id="path4174"
         style="font-style:normal;font-variant:normal;font-weight:normal;font-stretch:normal;font-family:'Droid Sans Mono';-inkscape-font-specification:'Droid Sans Mono';stroke:none;stroke-width:2"
         d="m 49.536021,983.54227 q -2.44914,0 -3.711142,-2.06412 -1.262003,-2.07482 -1.262003,-5.98917 0,-8.04259 4.973145,-8.04259 2.481224,0 3.743227,2.07482 1.272697,2.06412 1.272697,5.96777 0,8.05329 -5.015924,8.05329 z m 0,-1.65772 q 1.572155,0 2.310105,-1.49729 0.737951,-1.50798 0.737951,-4.89828 0,-3.3689 -0.737951,-4.86619 -0.73795,-1.50799 -2.310105,-1.50799 -1.550766,0 -2.278021,1.49729 -0.716561,1.4866 -0.716561,4.87689 0,3.40099 0.716561,4.89828 0.727255,1.49729 2.278021,1.49729 z" />
      <path
         id="path4176"
         style="font-style:normal;font-variant:normal;font-weight:normal;font-stretch:normal;font-family:'Droid Sans Mono';-inkscape-font-specification:'Droid Sans Mono';stroke:none;stroke-width:2"
         d="m 64.230858,983.32837 -1.882308,0 0,-9.76448 q 0,-1.30478 0.08556,-3.86087 -0.417102,0.45989 -1.294087,1.20853 l -1.572155,1.29409 -1.037409,-1.31548 4.09616,-3.19778 1.60424,0 0,15.63599 z" />
      <path
         id="path4178"
         style="font-style:normal;font-variant:normal;font-weight:normal;font-stretch:normal;font-family:'Droid Sans Mono';-inkscape-font-specification:'Droid Sans Mono';stroke:none;stroke-width:2"
         d="m 77.364235,983.32837 -1.882308,0 0,-9.76448 q 0,-1.30478 0.08556,-3.86087 -0.417102,0.45989 -1.294087,1.20853 l -1.572155,1.29409 -1.037409,-1.31548 4.09616,-3.19778 1.60424,0 0,15.63599 z" />
      <path
         id="path4180"
         style="font-style:normal;font-variant:normal;font-weight:normal;font-stretch:normal;font-family:'Droid Sans Mono';-inkscape-font-specification:'Droid Sans Mono';stroke:none;stroke-width:2"
         d="m 90.49762,983.32837 -1.882309,0 0,-9.76448 q 0,-1.30478 0.08556,-3.86087 -0.417102,0.45989 -1.294087,1.20853 l -1.572155,1.29409 -1.037409,-1.31548 4.09616,-3.19778 1.60424,0 0,15.63599 z" />
      <path
         id="path4182"
         style="font-style:normal;font-variant:normal;font-weight:normal;font-stretch:normal;font-family:'Droid Sans Mono';-inkscape-font-specification:'Droid Sans Mono';stroke:none;stroke-width:2"
         d="m 11.697342,1010.7074 -1.8823082,0 0,-9.7645 q 0,-1.30476 0.085559,-3.86085 -0.4171024,0.45989 -1.294087,1.20853 l -1.5721553,1.29409 -1.0374086,-1.31548 4.0961597,-3.19778 1.60424,0 0,15.63599 z" />
      <path
         id="path4184"
         style="font-style:normal;font-variant:normal;font-weight:normal;font-stretch:normal;font-family:'Droid Sans Mono';-inkscape-font-specification:'Droid Sans Mono';stroke:none;stroke-width:2"
         d="m 23.269261,1010.9213 q -2.44914,0 -3.711142,-2.0641 -1.262003,-2.0748 -1.262003,-5.9892 0,-8.04258 4.973145,-8.04258 2.481224,0 3.743227,2.07482 1.272697,2.06412 1.272697,5.96776 0,8.0533 -5.015924,8.0533 z m 0,-1.6577 q 1.572155,0 2.310106,-1.4973 0.73795,-1.508 0.73795,-4.8983 0,-3.36889 -0.73795,-4.86618 -0.737951,-1.50799 -2.310106,-1.50799 -1.550766,0 -2.278021,1.49729 -0.716561,1.4866 -0.716561,4.87688 0,3.401 0.716561,4.8983 0.727255,1.4973 2.278021,1.4973 z" />
      <path
         id="path4186"
         style="font-style:normal;font-variant:normal;font-weight:normal;font-stretch:normal;font-family:'Droid Sans Mono';-inkscape-font-specification:'Droid Sans Mono';stroke:none;stroke-width:2"
         d="m 36.40264,1010.9213 q -2.44914,0 -3.711142,-2.0641 -1.262003,-2.0748 -1.262003,-5.9892 0,-8.04258 4.973145,-8.04258 2.481224,0 3.743227,2.07482 1.272697,2.06412 1.272697,5.96776 0,8.0533 -5.015924,8.0533 z m 0,-1.6577 q 1.572155,0 2.310105,-1.4973 0.737951,-1.508 0.737951,-4.8983 0,-3.36889 -0.737951,-4.86618 -0.73795,-1.50799 -2.310105,-1.50799 -1.550766,0 -2.278021,1.49729 -0.716561,1.4866 -0.716561,4.87688 0,3.401 0.716561,4.8983 0.727255,1.4973 2.278021,1.4973 z" />
      <path
         id="path4188"
         style="font-style:normal;font-variant:normal;font-weight:normal;font-stretch:normal;font-family:'Droid Sans Mono';-inkscape-font-specification:'Droid Sans Mono';stroke:none;stroke-width:2"
         d="m 51.097481,1010.7074 -1.882308,0 0,-9.7645 q 0,-1.30476 0.08556,-3.86085 -0.417102,0.45989 -1.294087,1.20853 l -1.572155,1.29409 -1.037409,-1.31548 4.09616,-3.19778 1.60424,0 0,15.63599 z" />
      <path
         id="path4190"
         style="font-style:normal;font-variant:normal;font-weight:normal;font-stretch:normal;font-family:'Droid Sans Mono';-inkscape-font-specification:'Droid Sans Mono';stroke:none;stroke-width:2"
         d="m 64.230858,1010.7074 -1.882308,0 0,-9.7645 q 0,-1.30476 0.08556,-3.86085 -0.417102,0.45989 -1.294087,1.20853 l -1.572155,1.29409 -1.037409,-1.31548 4.09616,-3.19778 1.60424,0 0,15.63599 z" />
      <path
         id="path4192"
         style="font-style:normal;font-variant:normal;font-weight:normal;font-stretch:normal;font-family:'Droid Sans Mono';-inkscape-font-specification:'Droid Sans Mono';stroke:none;stroke-width:2"
         d="m 75.802775,1010.9213 q -2.44914,0 -3.711142,-2.0641 -1.262003,-2.0748 -1.262003,-5.9892 0,-8.04258 4.973145,-8.04258 2.481224,0 3.743227,2.07482 1.272697,2.06412 1.272697,5.96776 0,8.0533 -5.015924,8.0533 z m 0,-1.6577 q 1.572155,0 2.310106,-1.4973 0.73795,-1.508 0.73795,-4.8983 0,-3.36889 -0.73795,-4.86618 -0.737951,-1.50799 -2.310106,-1.50799 -1.550766,0 -2.278021,1.49729 -0.716561,1.4866 -0.716561,4.87688 0,3.401 0.716561,4.8983 0.727255,1.4973 2.278021,1.4973 z" />
      <path
         id="path4194"
         style="font-style:normal;font-variant:normal;font-weight:normal;font-stretch:normal;font-family:'Droid Sans Mono';-inkscape-font-specification:'Droid Sans Mono';stroke:none;stroke-width:2"
         d="m 88.936159,1010.9213 q -2.449139,0 -3.711142,-2.0641 -1.262002,-2.0748 -1.262002,-5.9892 0,-8.04258 4.973144,-8.04258 2.481225,0 3.743227,2.07482 1.272698,2.06412 1.272698,5.96776 0,8.0533 -5.015925,8.0533 z m 0,-1.6577 q 1.572156,0 2.310106,-1.4973 0.737951,-1.508 0.737951,-4.8983 0,-3.36889 -0.737951,-4.86618 -0.73795,-1.50799 -2.310106,-1.50799 -1.550765,0 -2.27802,1.49729 -0.716561,1.4866 -0.716561,4.87688 0,3.401 0.716561,4.8983 0.727255,1.4973 2.27802,1.4973 z" />
      <path
         id="path4196"
         style="font-style:normal;font-variant:normal;font-weight:normal;font-stretch:normal;font-family:'Droid Sans Mono';-inkscape-font-specification:'Droid Sans Mono';stroke:none;stroke-width:2"
         d="m 11.697342,1038.0864 -1.8823082,0 0,-9.7644 q 0,-1.3048 0.085559,-3.8609 -0.4171024,0.4599 -1.294087,1.2085 l -1.5721553,1.2941 -1.0374086,-1.3155 4.0961597,-3.1978 1.60424,0 0,15.636 z" />
      <path
         id="path4198"
         style="font-style:normal;font-variant:normal;font-weight:normal;font-stretch:normal;font-family:'Droid Sans Mono';-inkscape-font-specification:'Droid Sans Mono';stroke:none;stroke-width:2"
         d="m 23.269261,1038.3003 q -2.44914,0 -3.711142,-2.0641 -1.262003,-2.0748 -1.262003,-5.9892 0,-8.0425 4.973145,-8.0425 2.481224,0 3.743227,2.0748 1.272697,2.0641 1.272697,5.9677 0,8.0533 -5.015924,8.0533 z m 0,-1.6577 q 1.572155,0 2.310106,-1.4973 0.73795,-1.508 0.73795,-4.8983 0,-3.3689 -0.73795,-4.8662 -0.737951,-1.5079 -2.310106,-1.5079 -1.550766,0 -2.278021,1.4973 -0.716561,1.4866 -0.716561,4.8768 0,3.401 0.716561,4.8983 0.727255,1.4973 2.278021,1.4973 z" />
      <path
         id="path4200"
         style="font-style:normal;font-variant:normal;font-weight:normal;font-stretch:normal;font-family:'Droid Sans Mono';-inkscape-font-specification:'Droid Sans Mono';stroke:none;stroke-width:2"
         d="m 36.40264,1038.3003 q -2.44914,0 -3.711142,-2.0641 -1.262003,-2.0748 -1.262003,-5.9892 0,-8.0425 4.973145,-8.0425 2.481224,0 3.743227,2.0748 1.272697,2.0641 1.272697,5.9677 0,8.0533 -5.015924,8.0533 z m 0,-1.6577 q 1.572155,0 2.310105,-1.4973 0.737951,-1.508 0.737951,-4.8983 0,-3.3689 -0.737951,-4.8662 -0.73795,-1.5079 -2.310105,-1.5079 -1.550766,0 -2.278021,1.4973 -0.716561,1.4866 -0.716561,4.8768 0,3.401 0.716561,4.8983 0.727255,1.4973 2.278021,1.4973 z" />
      <path
         id="path4202"
         style="font-style:normal;font-variant:normal;font-weight:normal;font-stretch:normal;font-family:'Droid Sans Mono';-inkscape-font-specification:'Droid Sans Mono';stroke:none;stroke-width:2"
         d="m 49.536021,1038.3003 q -2.44914,0 -3.711142,-2.0641 -1.262003,-2.0748 -1.262003,-5.9892 0,-8.0425 4.973145,-8.0425 2.481224,0 3.743227,2.0748 1.272697,2.0641 1.272697,5.9677 0,8.0533 -5.015924,8.0533 z m 0,-1.6577 q 1.572155,0 2.310105,-1.4973 0.737951,-1.508 0.737951,-4.8983 0,-3.3689 -0.737951,-4.8662 -0.73795,-1.5079 -2.310105,-1.5079 -1.550766,0 -2.278021,1.4973 -0.716561,1.4866 -0.716561,4.8768 0,3.401 0.716561,4.8983 0.727255,1.4973 2.278021,1.4973 z" />
      <path
         id="path4204"
         style="font-style:normal;font-variant:normal;font-weight:normal;font-stretch:normal;font-family:'Droid Sans Mono';-inkscape-font-specification:'Droid Sans Mono';stroke:none;stroke-width:2"
         d="m 64.230858,1038.0864 -1.882308,0 0,-9.7644 q 0,-1.3048 0.08556,-3.8609 -0.417102,0.4599 -1.294087,1.2085 l -1.572155,1.2941 -1.037409,-1.3155 4.09616,-3.1978 1.60424,0 0,15.636 z" />
      <path
         id="path4206"
         style="font-style:normal;font-variant:normal;font-weight:normal;font-stretch:normal;font-family:'Droid Sans Mono';-inkscape-font-specification:'Droid Sans Mono';stroke:none;stroke-width:2"
         d="m 77.364235,1038.0864 -1.882308,0 0,-9.7644 q 0,-1.3048 0.08556,-3.8609 -0.417102,0.4599 -1.294087,1.2085 l -1.572155,1.2941 -1.037409,-1.3155 4.09616,-3.1978 1.60424,0 0,15.636 z" />
      <path
         id="path4208"
         style="font-style:normal;font-variant:normal;font-weight:normal;font-stretch:normal;font-family:'Droid Sans Mono';-inkscape-font-specification:'Droid Sans Mono';stroke:none;stroke-width:2"
         d="m 88.936159,1038.3003 q -2.449139,0 -3.711142,-2.0641 -1.262002,-2.0748 -1.262002,-5.9892 0,-8.0425 4.973144,-8.0425 2.481225,0 3.743227,2.0748 1.272698,2.0641 1.272698,5.9677 0,8.0533 -5.015925,8.0533 z m 0,-1.6577 q 1.572156,0 2.310106,-1.4973 0.737951,-1.508 0.737951,-4.8983 0,-3.3689 -0.737951,-4.8662 -0.73795,-1.5079 -2.310106,-1.5079 -1.550765,0 -2.27802,1.4973 -0.716561,1.4866 -0.716561,4.8768 0,3.401 0.716561,4.8983 0.727255,1.4973 2.27802,1.4973 z" />
    </g>
  </g>
</svg>
