<?xml version="1.0" encoding="UTF-8" standalone="no"?>
<svg
   xmlns:dc="http://purl.org/dc/elements/1.1/"
   xmlns:cc="http://creativecommons.org/ns#"
   xmlns:rdf="http://www.w3.org/1999/02/22-rdf-syntax-ns#"
   xmlns:svg="http://www.w3.org/2000/svg"
   xmlns="http://www.w3.org/2000/svg"
   xmlns:sodipodi="http://sodipodi.sourceforge.net/DTD/sodipodi-0.dtd"
   xmlns:inkscape="http://www.inkscape.org/namespaces/inkscape"
   version="1.1"
   x="0px"
   y="0px"
   viewBox="0 0 100 100"
   enable-background="new 0 0 100 100"
   xml:space="preserve"
   id="svg2"
   inkscape:version="0.91 r"
   sodipodi:docname="down.svg"
   width="100"
   height="100"><metadata
     id="metadata28"><rdf:RDF><cc:Work
         rdf:about=""><dc:format>image/svg+xml</dc:format><dc:type
           rdf:resource="http://purl.org/dc/dcmitype/StillImage" /><dc:title></dc:title></cc:Work></rdf:RDF></metadata><defs
     id="defs26" /><sodipodi:namedview
     pagecolor="#ffffff"
     bordercolor="#666666"
     borderopacity="1"
     objecttolerance="10"
     gridtolerance="10"
     guidetolerance="10"
     inkscape:pageopacity="0"
     inkscape:pageshadow="2"
     inkscape:window-width="1189"
     inkscape:window-height="480"
     id="namedview24"
     showgrid="false"
     inkscape:zoom="1.7746238"
     inkscape:cx="25.345852"
     inkscape:cy="46.344628"
     inkscape:window-x="0"
     inkscape:window-y="24"
     inkscape:window-maximized="0"
     inkscape:current-layer="svg2" /><g
     id="g4"><path
       d="m 31.62,55.777 15.504,15.504 c 0.016,0.016 0.026,0.036 0.043,0.052 0.558,0.558 1.244,0.907 1.965,1.065 0.024,0.005 0.046,0.016 0.07,0.021 0.262,0.052 0.529,0.081 0.795,0.081 10e-4,0 0.002,0 0.002,0 0,0 0.002,0 0.002,0 0.267,0 0.533,-0.028 0.795,-0.081 0.024,-0.005 0.046,-0.015 0.07,-0.021 0.721,-0.158 1.407,-0.507 1.965,-1.065 0.016,-0.016 0.027,-0.036 0.043,-0.052 L 68.38,55.777 c 1.556,-1.556 1.556,-4.101 0,-5.657 -1.556,-1.556 -4.101,-1.556 -5.657,0 L 54,58.843 54,31.5 c 0,-2.2 -1.8,-4 -4,-4 -2.2,0 -4,1.8 -4,4 l 0,27.343 -8.723,-8.723 c -1.556,-1.556 -4.101,-1.556 -5.657,0 -1.556,1.556 -1.556,4.101 0,5.657 z"
       id="path6"
       inkscape:connector-curvature="0" /></g><g
     display="none"
     id="g8"
     style="display:none"
     transform="translate(0,-25)"><path
       display="inline"
       d="M 50,95 C 74.853,95 95,74.853 95,50 95,25.148 74.853,5 50,5 25.148,5 5,25.148 5,50 5,74.853 25.148,95 50,95 Z M 31.62,50.12 c 1.556,-1.556 4.101,-1.556 5.657,0 L 46,58.843 46,31.5 c 0,-2.2 1.8,-4 4,-4 2.2,0 4,1.8 4,4 l 0,27.343 8.723,-8.723 c 1.556,-1.556 4.101,-1.556 5.657,0 1.556,1.556 1.556,4.101 0,5.657 L 52.876,71.281 c -0.016,0.016 -0.026,0.036 -0.043,0.052 -0.558,0.558 -1.244,0.907 -1.965,1.065 -0.024,0.005 -0.046,0.016 -0.07,0.021 -0.262,0.052 -0.529,0.081 -0.795,0.081 -10e-4,0 -0.002,0 -0.002,0 0,0 -0.002,0 -0.002,0 -0.267,0 -0.533,-0.028 -0.795,-0.081 -0.024,-0.005 -0.046,-0.015 -0.07,-0.021 -0.721,-0.158 -1.407,-0.507 -1.965,-1.065 -0.016,-0.016 -0.027,-0.036 -0.043,-0.052 L 31.62,55.777 c -1.556,-1.556 -1.556,-4.101 0,-5.657 z"
       id="path10"
       inkscape:connector-curvature="0"
       style="display:inline" /></g><g
     display="none"
     id="g12"
     style="display:none"
     transform="translate(0,-25)"><g
       display="inline"
       id="g14"
       style="display:inline"><path
         d="M 50,95 C 74.853,95 95,74.853 95,50 95,25.148 74.853,5 50,5 25.148,5 5,25.148 5,50 5,74.853 25.148,95 50,95 Z M 50,10 C 72.092,10 90,27.909 90,50 90,72.092 72.092,90 50,90 27.909,90 10,72.092 10,50 10,27.909 27.909,10 50,10 Z"
         id="path16"
         inkscape:connector-curvature="0" /><path
         d="m 31.62,55.777 15.504,15.504 c 0.016,0.016 0.026,0.036 0.043,0.052 0.558,0.558 1.244,0.907 1.965,1.065 0.024,0.005 0.046,0.016 0.07,0.021 0.262,0.052 0.529,0.081 0.795,0.081 10e-4,0 0.002,0 0.002,0 0,0 0.002,0 0.002,0 0.267,0 0.533,-0.028 0.795,-0.081 0.024,-0.005 0.046,-0.015 0.07,-0.021 0.721,-0.158 1.407,-0.507 1.965,-1.065 0.016,-0.016 0.027,-0.036 0.043,-0.052 L 68.38,55.777 c 1.556,-1.556 1.556,-4.101 0,-5.657 -1.556,-1.556 -4.101,-1.556 -5.657,0 L 54,58.843 54,31.5 c 0,-2.2 -1.8,-4 -4,-4 -2.2,0 -4,1.8 -4,4 l 0,27.343 -8.723,-8.723 c -1.556,-1.556 -4.101,-1.556 -5.657,0 -1.556,1.556 -1.556,4.101 0,5.657 z"
         id="path18"
         inkscape:connector-curvature="0" /></g></g></svg>