<?xml version="1.0" encoding="UTF-8" standalone="no"?>
<!-- Created with Inkscape (http://www.inkscape.org/) -->

<svg
   xmlns:dc="http://purl.org/dc/elements/1.1/"
   xmlns:cc="http://creativecommons.org/ns#"
   xmlns:rdf="http://www.w3.org/1999/02/22-rdf-syntax-ns#"
   xmlns:svg="http://www.w3.org/2000/svg"
   xmlns="http://www.w3.org/2000/svg"
   version="1.1"
   width="100"
   height="100"
   viewBox="0 0 100 100"
   id="Layer_1"
   xml:space="preserve"><metadata
     id="metadata9"><rdf:RDF><cc:Work
         rdf:about=""><dc:format>image/svg+xml</dc:format><dc:type
           rdf:resource="http://purl.org/dc/dcmitype/StillImage" /><dc:title></dc:title></cc:Work></rdf:RDF></metadata><defs
     id="defs7" /><path
     d="m 93.345343,46.890797 -4.655,-4.6555 c -0.7805,-0.781 -2.048,-0.781 -2.8275,0 l -23.777,23.7765 c -0.1645,0.164 -0.299,0.356 -0.3975,0.5665 l -4.094,8.75 c -0.3565,0.7625 -0.198,1.6665 0.3975,2.2615 0.3835,0.384 0.895,0.586 1.4145,0.586 0.2865,0 0.576,-0.0615 0.847,-0.1885 l 8.749,-4.0945 c 0.211,-0.0985 0.403,-0.233 0.567,-0.3975 l 23.776,-23.776 c 0.7815,-0.7815 0.7815,-2.0475 0,-2.8285 z m -26.356,23.528 -3.433,1.607 1.6065,-3.4335 17.548,-17.5485 1.827,1.8265 -17.5485,17.5485 z m 20.3765,-20.3765 -1.8265,-1.827 1.7375,-1.7375 1.8265,1.827 -1.7375,1.7375 z"
     id="path3" /><path
     d="M 56.374049,79.661014 C 15.677966,25.847456 15.677966,25.847456 15.677966,25.847456"
     id="path2986"
     style="fill:none;stroke:#000000;stroke-width:3;stroke-linecap:round;stroke-linejoin:miter;stroke-miterlimit:4;stroke-opacity:1;stroke-dasharray:none" /></svg>