<?xml version="1.0" encoding="UTF-8" standalone="no"?>
<!-- Created with Inkscape (http://www.inkscape.org/) -->

<svg
   xmlns:dc="http://purl.org/dc/elements/1.1/"
   xmlns:cc="http://creativecommons.org/ns#"
   xmlns:rdf="http://www.w3.org/1999/02/22-rdf-syntax-ns#"
   xmlns:svg="http://www.w3.org/2000/svg"
   xmlns="http://www.w3.org/2000/svg"
   version="1.2"
   width="100"
   height="100"
   viewBox="0 0 100 100"
   id="Layer_1"
   xml:space="preserve"><metadata
     id="metadata3864"><rdf:RDF><cc:Work
         rdf:about=""><dc:format>image/svg+xml</dc:format><dc:type
           rdf:resource="http://purl.org/dc/dcmitype/StillImage" /><dc:title></dc:title></cc:Work></rdf:RDF></metadata><defs
     id="defs3862" /><path
     d="m 84.6804,10 v 2.0696 c 0,1.2472 -0.9256,2.2584 -2.0696,2.2584 H 78.646 c -1.1432,0 -2.0704,-1.0112 -2.0704,-2.2584 V 10 H 23.4932 v 2.0696 c 0,1.2472 -0.9264,2.2584 -2.0704,2.2584 H 17.458 c -1.1432,0 -2.0696,-1.0112 -2.0696,-2.2584 V 10 H 12.466 v 80 h 2.9272 c -8e-4,-0.0168 -0.0048,-0.0312 -0.0048,-0.0472 v -2.1552 c 0,-1.248 0.9264,-2.2592 2.0696,-2.2592 h 3.9648 c 1.144,0 2.0704,1.012 2.0704,2.2592 v 2.1552 c 0,0.016 -0.004,0.0304 -0.0048,0.0472 h 53.0912 c 0,-0.0168 -0.0048,-0.0312 -0.0048,-0.0472 v -2.1552 c 0,-1.248 0.9272,-2.2592 2.0704,-2.2592 H 82.61 c 1.144,0 2.0696,1.012 2.0696,2.2592 v 2.1552 c 0,0.016 -0.004,0.0304 -0.004,0.0472 H 87.534 V 10 H 84.6804 z M 23.4932,78.8256 c 0,1.2472 -0.9264,2.2584 -2.0704,2.2584 H 17.458 c -1.1432,0 -2.0696,-1.012 -2.0696,-2.2584 v -2.1544 c 0,-1.248 0.9264,-2.2592 2.0696,-2.2592 h 3.9648 c 1.144,0 2.0704,1.012 2.0704,2.2592 v 2.1544 z m 0,-11.1264 c 0,1.2488 -0.9264,2.2592 -2.0704,2.2592 H 17.458 c -1.1432,0 -2.0696,-1.0112 -2.0696,-2.2592 v -2.1544 c 0,-1.2472 0.9264,-2.2584 2.0696,-2.2584 h 3.9648 c 1.144,0 2.0704,1.012 2.0704,2.2584 v 2.1544 z m 0,-11.1256 c 0,1.2488 -0.9264,2.2592 -2.0704,2.2592 H 17.458 c -1.1432,0 -2.0696,-1.0112 -2.0696,-2.2592 v -2.1552 c 0,-1.2472 0.9264,-2.2584 2.0696,-2.2584 h 3.9648 c 1.144,0 2.0704,1.012 2.0704,2.2584 v 2.1552 z m 0,-11.1256 c 0,1.2472 -0.9264,2.2584 -2.0704,2.2584 H 17.458 c -1.1432,0 -2.0696,-1.0112 -2.0696,-2.2584 v -2.1552 c 0,-1.248 0.9264,-2.2592 2.0696,-2.2592 h 3.9648 c 1.144,0 2.0704,1.0112 2.0704,2.2592 v 2.1552 z m 0,-11.1264 c 0,1.248 -0.9264,2.2592 -2.0704,2.2592 H 17.458 c -1.1432,0 -2.0696,-1.0112 -2.0696,-2.2592 v -2.1552 c 0,-1.248 0.9264,-2.2592 2.0696,-2.2592 h 3.9648 c 1.144,0 2.0704,1.0112 2.0704,2.2592 v 2.1552 z m 0,-11.1256 c 0,1.2472 -0.9264,2.2584 -2.0704,2.2584 H 17.458 c -1.1432,0 -2.0696,-1.0112 -2.0696,-2.2584 v -2.1552 c 0,-1.248 0.9264,-2.2592 2.0696,-2.2592 h 3.9648 c 1.144,0 2.0704,1.0112 2.0704,2.2592 v 2.1552 z m 49.7944,59.2408 c 0,1.4656 -0.9112,3.18 -2.3728,3.18 H 29.634 c -1.4624,0 -2.9208,-1.7144 -2.9208,-3.18 v -27.572 c 0,-1.4648 1.4584,-2.1248 2.9208,-2.1248 h 41.2816 c 1.4616,0 2.3728,0.66 2.3728,2.1248 v 27.572 z m 0,-37.984 c 0,1.3992 -1.096,2.8072 -2.6232,2.8072 h -41.376 c -1.5272,0 -2.576,-1.408 -2.576,-2.8072 V 16.5832 c 0,-1.3992 1.0488,-2.2 2.576,-2.2 h 41.376 c 1.5272,0 2.6232,0.8 2.6232,2.2 v 27.8696 z m 11.3928,34.3728 c 0,1.2472 -0.9256,2.2584 -2.0696,2.2584 H 78.646 c -1.1432,0 -2.0704,-1.012 -2.0704,-2.2584 v -2.1544 c 0,-1.248 0.9272,-2.2592 2.0704,-2.2592 h 3.9648 c 1.144,0 2.0696,1.012 2.0696,2.2592 v 2.1544 z m 0,-11.1264 c 0,1.2488 -0.9256,2.2592 -2.0696,2.2592 H 78.646 c -1.1432,0 -2.0704,-1.0112 -2.0704,-2.2592 v -2.1544 c 0,-1.2472 0.9272,-2.2584 2.0704,-2.2584 h 3.9648 c 1.144,0 2.0696,1.012 2.0696,2.2584 v 2.1544 z m 0,-11.1256 c 0,1.2488 -0.9256,2.2592 -2.0696,2.2592 H 78.646 c -1.1432,0 -2.0704,-1.0112 -2.0704,-2.2592 v -2.1552 c 0,-1.2472 0.9272,-2.2584 2.0704,-2.2584 h 3.9648 c 1.144,0 2.0696,1.012 2.0696,2.2584 v 2.1552 z m 0,-11.1256 c 0,1.2472 -0.9256,2.2584 -2.0696,2.2584 H 78.646 c -1.1432,0 -2.0704,-1.0112 -2.0704,-2.2584 v -2.1552 c 0,-1.248 0.9272,-2.2592 2.0704,-2.2592 h 3.9648 c 1.144,0 2.0696,1.0112 2.0696,2.2592 v 2.1552 z m 0,-11.1264 c 0,1.248 -0.9256,2.2592 -2.0696,2.2592 H 78.646 c -1.1432,0 -2.0704,-1.0112 -2.0704,-2.2592 v -2.1552 c 0,-1.248 0.9272,-2.2592 2.0704,-2.2592 h 3.9648 c 1.144,0 2.0696,1.0112 2.0696,2.2592 v 2.1552 z m 0,-11.1256 c 0,1.2472 -0.9256,2.2584 -2.0696,2.2584 H 78.646 c -1.1432,0 -2.0704,-1.0112 -2.0704,-2.2584 v -2.1552 c 0,-1.248 0.9272,-2.2592 2.0704,-2.2592 h 3.9648 c 1.144,0 2.0696,1.0112 2.0696,2.2592 v 2.1552 z"
     id="path3858" /></svg>