<?xml version="1.0" encoding="UTF-8" standalone="no"?>
<svg
   xmlns:dc="http://purl.org/dc/elements/1.1/"
   xmlns:cc="http://creativecommons.org/ns#"
   xmlns:rdf="http://www.w3.org/1999/02/22-rdf-syntax-ns#"
   xmlns:svg="http://www.w3.org/2000/svg"
   xmlns="http://www.w3.org/2000/svg"
   xmlns:sodipodi="http://sodipodi.sourceforge.net/DTD/sodipodi-0.dtd"
   xmlns:inkscape="http://www.inkscape.org/namespaces/inkscape"
   version="1.1"
   x="0px"
   y="0px"
   viewBox="0 0 100 100"
   enable-background="new 0 0 100 100"
   xml:space="preserve"
   id="svg2"
   inkscape:version="0.91 r"
   sodipodi:docname="trash_can.svg"
   width="100"
   height="100"><metadata
     id="metadata22"><rdf:RDF><cc:Work
         rdf:about=""><dc:format>image/svg+xml</dc:format><dc:type
           rdf:resource="http://purl.org/dc/dcmitype/StillImage" /><dc:title></dc:title></cc:Work></rdf:RDF></metadata><defs
     id="defs20" /><sodipodi:namedview
     pagecolor="#ffffff"
     bordercolor="#666666"
     borderopacity="1"
     objecttolerance="10"
     gridtolerance="10"
     guidetolerance="10"
     inkscape:pageopacity="0"
     inkscape:pageshadow="2"
     inkscape:window-width="864"
     inkscape:window-height="480"
     id="namedview18"
     showgrid="false"
     inkscape:zoom="1.3770028"
     inkscape:cx="165.4661"
     inkscape:cy="62.5"
     inkscape:window-x="10"
     inkscape:window-y="34"
     inkscape:window-maximized="0"
     inkscape:current-layer="svg2" /><g
     id="g4"
     transform="translate(-0.5,-1)"><path
       d="m 83,21 -20,0 0,-9 -25,0 0,9 -20,0 0,17 5,0 0,52 55,0 0,-52 5,0 0,-17 z m -42,-6 19,0 0,6 -19,0 0,-6 z m 34,72 -49,0 0,-49 49,0 0,49 z m 5,-52 -2,0 -55,0 -2,0 0,-11 17,0 25,0 17,0 0,11 z"
       id="path6"
       inkscape:connector-curvature="0" /><rect
       x="35"
       y="43"
       width="3"
       height="39"
       id="rect8" /><rect
       x="49"
       y="43"
       width="3"
       height="39"
       id="rect10" /><rect
       x="63"
       y="43"
       width="3"
       height="39"
       id="rect12" /></g></svg>