<?xml version="1.0" encoding="UTF-8" standalone="no"?>
<!-- Created with Inkscape (http://www.inkscape.org/) -->

<svg
   xmlns:dc="http://purl.org/dc/elements/1.1/"
   xmlns:cc="http://creativecommons.org/ns#"
   xmlns:rdf="http://www.w3.org/1999/02/22-rdf-syntax-ns#"
   xmlns:svg="http://www.w3.org/2000/svg"
   xmlns="http://www.w3.org/2000/svg"
   xmlns:sodipodi="http://sodipodi.sourceforge.net/DTD/sodipodi-0.dtd"
   xmlns:inkscape="http://www.inkscape.org/namespaces/inkscape"
   width="300"
   height="300"
   viewBox="0 0 300 300"
   id="svg2"
   version="1.1"
   inkscape:version="0.91 r"
   sodipodi:docname="unknown.svg">
  <defs
     id="defs4" />
  <sodipodi:namedview
     id="base"
     pagecolor="#ffffff"
     bordercolor="#666666"
     borderopacity="1.0"
     inkscape:pageopacity="0.0"
     inkscape:pageshadow="2"
     inkscape:zoom="0.88457031"
     inkscape:cx="185.07728"
     inkscape:cy="113.02274"
     inkscape:document-units="px"
     inkscape:current-layer="layer1"
     showgrid="false"
     units="px"
     inkscape:window-width="1280"
     inkscape:window-height="776"
     inkscape:window-x="0"
     inkscape:window-y="24"
     inkscape:window-maximized="1" />
  <metadata
     id="metadata7">
    <rdf:RDF>
      <cc:Work
         rdf:about="">
        <dc:format>image/svg+xml</dc:format>
        <dc:type
           rdf:resource="http://purl.org/dc/dcmitype/StillImage" />
        <dc:title></dc:title>
      </cc:Work>
    </rdf:RDF>
  </metadata>
  <g
     inkscape:label="Layer 1"
     inkscape:groupmode="layer"
     id="layer1"
     transform="translate(0,-752.36216)">
    <path
       style="color:#000000;clip-rule:nonzero;display:inline;overflow:visible;visibility:visible;opacity:1;isolation:auto;mix-blend-mode:normal;color-interpolation:sRGB;color-interpolation-filters:linearRGB;solid-color:#000000;solid-opacity:1;fill:#777777;fill-opacity:1;fill-rule:nonzero;stroke:#000000;stroke-width:0.99999994;stroke-linecap:square;stroke-linejoin:round;stroke-miterlimit:4;stroke-dasharray:none;stroke-dashoffset:0;stroke-opacity:1;color-rendering:auto;image-rendering:auto;shape-rendering:auto;text-rendering:auto;enable-background:accumulate"
       d="M 40.5 0.5 L 40.5 299.5 L 259.5 299.5 L 259.5 0.5 L 40.5 0.5 z M 155.35742 75 C 179.14313 75 189.64258 86.570594 189.64258 100.92773 C 189.64258 137.99916 144.42941 143.78515 136.07227 175.28516 L 126.21484 175.28516 C 126.21484 145.07087 169.5 135.42885 169.5 101.35742 C 169.5 89.357422 160.92801 84.427734 151.28516 84.427734 C 140.1423 84.427734 127.71484 92.357422 127.71484 104.35742 C 127.71484 109.28599 131.57087 116.78571 142.28516 118.5 C 138.6423 124.5 132.64258 127.5 126.64258 127.5 C 118.28544 127.5 110.35742 121.5 110.35742 109.5 C 110.35742 94.92857 123.00027 75 155.35742 75 z M 126 196.5 C 133.71429 196.5 140.35742 203.14313 140.35742 210.85742 C 140.35742 218.78599 133.71429 225 126 225 C 118.07143 225 111.85742 218.78599 111.85742 210.85742 C 111.85742 203.14313 118.07143 196.5 126 196.5 z "
       transform="translate(0,752.36216)"
       id="rect4136" />
    <g
       style="font-style:normal;font-variant:normal;font-weight:normal;font-stretch:normal;font-size:214.28572083px;line-height:125%;font-family:'Abyssinica SIL';-inkscape-font-specification:'Abyssinica SIL, Normal';text-align:start;letter-spacing:0px;word-spacing:0px;writing-mode:lr-tb;text-anchor:start;fill:#000000;fill-opacity:1;stroke:none;stroke-width:1px;stroke-linecap:butt;stroke-linejoin:miter;stroke-opacity:1"
       id="text4138" />
  </g>
</svg>
