<?xml version="1.0" encoding="UTF-8" standalone="no"?>
<svg id="svg2" xmlns:rdf="http://www.w3.org/1999/02/22-rdf-syntax-ns#" xmlns="http://www.w3.org/2000/svg" enable-background="new 0 0 100 100" xml:space="preserve" version="1.1" x="0px" y="0px" xmlns:cc="http://creativecommons.org/ns#" viewBox="0 0 100 100" xmlns:dc="http://purl.org/dc/elements/1.1/">
   <style type="text/css">
g.highlight>path {
	fill:#000000;
}

g.lowlight>path {
	fill:#858585;
}
	</style>
<g id='clock'>
<path id="path12" d="m81.327 80.433c7.849-7.89 12.708-18.757 12.708-30.738 0-11.982-4.859-22.848-12.708-30.738-0.026-0.03-0.036-0.068-0.064-0.096s-0.066-0.038-0.096-0.064c-7.891-7.85-18.757-12.71-30.739-12.71s-22.849 4.859-30.739 12.708c-0.03 0.026-0.068 0.036-0.096 0.064s-0.038 0.066-0.064 0.096c-7.849 7.891-12.709 18.758-12.709 30.739 0 11.982 4.859 22.849 12.708 30.738 0.026 0.03 0.036 0.068 0.064 0.097s0.066 0.038 0.097 0.064c7.89 7.849 18.757 12.708 30.738 12.708s22.849-4.859 30.738-12.708c0.03-0.026 0.068-0.036 0.097-0.064s0.039-0.066 0.065-0.096zm-4.142-6.102c-0.586-0.586-1.535-0.586-2.121 0s-0.586 1.536 0 2.121l2.979 2.978c-6.91 6.421-16.049 10.466-26.115 10.834v-10.534c0-0.829-0.672-1.5-1.5-1.5s-1.5 0.671-1.5 1.5v10.534c-10.066-0.368-19.205-4.413-26.114-10.834l2.979-2.978c0.586-0.585 0.586-1.535 0-2.121s-1.535-0.586-2.121 0l-2.979 2.978c-6.391-6.877-10.43-15.964-10.83-25.974h11.441c0.828 0 1.5-0.671 1.5-1.5s-0.672-1.5-1.5-1.5h-11.449c0.335-10.121 4.386-19.313 10.837-26.254l2.979 2.978c0.293 0.293 0.677 0.439 1.061 0.439s0.768-0.146 1.061-0.439c0.586-0.586 0.586-1.536 0-2.121l-2.979-2.978c6.91-6.421 16.049-10.466 26.114-10.834v10.534c0 0.829 0.672 1.5 1.5 1.5s1.5-0.671 1.5-1.5v-10.535c10.066 0.368 19.205 4.413 26.115 10.834l-2.979 2.978c-0.586 0.585-0.586 1.535 0 2.121 0.293 0.293 0.677 0.439 1.061 0.439s0.768-0.146 1.061-0.439l2.979-2.978c6.483 6.976 10.542 16.226 10.841 26.407h-10.556c-0.828 0-1.5 0.671-1.5 1.5s0.672 1.5 1.5 1.5h10.54c-0.435 9.951-4.468 18.979-10.826 25.822l-2.979-2.978z"/>
<path id="path14" d="m72.355 31.588-22.21 16.449-12.313-3.804c-0.787-0.241-1.631 0.198-1.876 0.99-0.244 0.792 0.199 1.631 0.991 1.876l13.038 4.028c0.014 0.004 0.028 0.003 0.043 0.006 0.127 0.035 0.256 0.058 0.388 0.059 0.004 0 0.009 0.002 0.013 0.002 0.057 0 0.111-0.02 0.167-0.027 0.1-0.011 0.2-0.016 0.297-0.048 0.152-0.05 0.294-0.124 0.422-0.218 0.002-0.001 0.004-0.001 0.005-0.003l22.821-16.898c0.666-0.493 0.806-1.433 0.312-2.098-0.493-0.668-1.432-0.806-2.098-0.314z"/>
</g>
	<script type="text/javascript"><![CDATA[
	var _value

	Object.defineProperty(document.defaultView,'value',
    {enumerable: true,
     get: function() { return _value;},
     set: function(value)
        {   
            if( value!=_value )
            {   
				_value=value
				document.getElementById('clock').classList=[value?'highlight':'lowlight']
            }   
        }   
    }) 
	value=false
  ]]></script>
</svg>
