<?xml version="1.0" encoding="UTF-8" standalone="no"?>
<svg
	xmlns:rdf="http://www.w3.org/1999/02/22-rdf-syntax-ns#"
	xmlns="http://www.w3.org/2000/svg"
	enable-background="new 0 0 100 100"
	xml:space="preserve"
	version="1.1"
	y="0px"
	x="0px"
	xmlns:cc="http://creativecommons.org/ns#"
	xmlns:dc="http://purl.org/dc/elements/1.1/"
	viewBox="0 0 100 100"
	id="svg2"
>
   <style type="text/css">
g.highlight>path {
	fill:#000000;
}

g.lowlight>path {
	fill:#858585;
}
	</style>
<g id="arrow">
	<path id="path6" d="m31.62 55.777 15.504 15.504c0.016 0.016 0.026 0.036 0.043 0.052 0.558 0.558 1.244 0.907 1.965 1.065 0.024 0.005 0.046 0.016 0.07 0.021 0.262 0.052 0.529 0.081 0.795 0.081h0.002 0.002c0.267 0 0.533-0.028 0.795-0.081 0.024-0.005 0.046-0.015 0.07-0.021 0.721-0.158 1.407-0.507 1.965-1.065 0.016-0.016 0.027-0.036 0.043-0.052l15.506-15.504c1.556-1.556 1.556-4.101 0-5.657s-4.101-1.556-5.657 0l-8.723 8.723v-27.343c0-2.2-1.8-4-4-4s-4 1.8-4 4v27.343l-8.723-8.723c-1.556-1.556-4.101-1.556-5.657 0s-1.556 4.101 0 5.657z"/>
</g>
	<script type="text/javascript"><![CDATA[
	var _value

	Object.defineProperty(document.defaultView,'value',
    {enumerable: true,
     get: function() { return _value;},
     set: function(value)
        {   
            if( value!=_value )
            {   
				_value=value
				document.getElementById('arrow').classList=[value?'highlight':'lowlight']
            }   
        }   
    }) 
	value=false
  ]]></script>
</svg>
