<?xml version="1.0" encoding="UTF-8" standalone="no"?>
<!-- Created with Inkscape (http://www.inkscape.org/) -->
<svg id="Layer_1" xmlns:rdf="http://www.w3.org/1999/02/22-rdf-syntax-ns#" xmlns="http://www.w3.org/2000/svg" xml:space="preserve" version="1.2" xmlns:cc="http://creativecommons.org/ns#" xmlns:dc="http://purl.org/dc/elements/1.1/" viewBox="0 0 100 100">
   <style type="text/css">
path.highlight {
	fill:#000000;
}

path.lowlight {
	fill:#858585;
}
   </style>
<path id="film" d="m84.68 10v2.0696c0 1.2472-0.9256 2.2584-2.0696 2.2584h-3.964c-1.1432 0-2.0704-1.0112-2.0704-2.2584v-2.07h-53.083v2.0696c0 1.2472-0.9264 2.2584-2.0704 2.2584h-3.965c-1.1432 0-2.0696-1.0112-2.0696-2.2584v-2.07h-2.922v80h2.9272c-0.0008-0.0168-0.0048-0.0312-0.0048-0.0472v-2.1552c0-1.248 0.9264-2.2592 2.0696-2.2592h3.9648c1.144 0 2.0704 1.012 2.0704 2.2592v2.1552c0 0.016-0.004 0.0304-0.0048 0.0472h53.091c0-0.0168-0.0048-0.0312-0.0048-0.0472v-2.1552c0-1.248 0.9272-2.2592 2.0704-2.2592h3.966c1.144 0 2.0696 1.012 2.0696 2.2592v2.1552c0 0.016-0.004 0.0304-0.004 0.0472h2.858v-80h-2.854zm-61.187 68.826c0 1.2472-0.9264 2.2584-2.0704 2.2584h-3.965c-1.1432 0-2.0696-1.012-2.0696-2.2584v-2.1544c0-1.248 0.9264-2.2592 2.0696-2.2592h3.9648c1.144 0 2.0704 1.012 2.0704 2.2592v2.1544zm0-11.126c0 1.2488-0.9264 2.2592-2.0704 2.2592h-3.965c-1.1432 0-2.0696-1.0112-2.0696-2.2592v-2.1544c0-1.2472 0.9264-2.2584 2.0696-2.2584h3.9648c1.144 0 2.0704 1.012 2.0704 2.2584v2.1544zm0-11.126c0 1.2488-0.9264 2.2592-2.0704 2.2592h-3.965c-1.1432 0-2.0696-1.0112-2.0696-2.2592v-2.1552c0-1.2472 0.9264-2.2584 2.0696-2.2584h3.9648c1.144 0 2.0704 1.012 2.0704 2.2584v2.1552zm0-11.126c0 1.2472-0.9264 2.2584-2.0704 2.2584h-3.965c-1.1432 0-2.0696-1.0112-2.0696-2.2584v-2.1552c0-1.248 0.9264-2.2592 2.0696-2.2592h3.9648c1.144 0 2.0704 1.0112 2.0704 2.2592v2.1552zm0-11.126c0 1.248-0.9264 2.2592-2.0704 2.2592h-3.965c-1.1432 0-2.0696-1.0112-2.0696-2.2592v-2.1552c0-1.248 0.9264-2.2592 2.0696-2.2592h3.9648c1.144 0 2.0704 1.0112 2.0704 2.2592v2.1552zm0-11.126c0 1.2472-0.9264 2.2584-2.0704 2.2584h-3.965c-1.1432 0-2.0696-1.0112-2.0696-2.2584v-2.1552c0-1.248 0.9264-2.2592 2.0696-2.2592h3.9648c1.144 0 2.0704 1.0112 2.0704 2.2592v2.1552zm49.794 59.241c0 1.4656-0.9112 3.18-2.3728 3.18h-41.28c-1.4624 0-2.9208-1.7144-2.9208-3.18v-27.572c0-1.4648 1.4584-2.1248 2.9208-2.1248h41.282c1.4616 0 2.3728 0.66 2.3728 2.1248v27.572zm0-37.984c0 1.3992-1.096 2.8072-2.6232 2.8072h-41.376c-1.5272 0-2.576-1.408-2.576-2.8072v-27.87c0-1.3992 1.0488-2.2 2.576-2.2h41.376c1.5272 0 2.6232 0.8 2.6232 2.2v27.87zm11.393 34.373c0 1.2472-0.9256 2.2584-2.0696 2.2584h-3.964c-1.1432 0-2.0704-1.012-2.0704-2.2584v-2.1544c0-1.248 0.9272-2.2592 2.0704-2.2592h3.9648c1.144 0 2.0696 1.012 2.0696 2.2592v2.1544zm0-11.126c0 1.2488-0.9256 2.2592-2.0696 2.2592h-3.964c-1.1432 0-2.0704-1.0112-2.0704-2.2592v-2.1544c0-1.2472 0.9272-2.2584 2.0704-2.2584h3.9648c1.144 0 2.0696 1.012 2.0696 2.2584v2.1544zm0-11.126c0 1.2488-0.9256 2.2592-2.0696 2.2592h-3.964c-1.1432 0-2.0704-1.0112-2.0704-2.2592v-2.1552c0-1.2472 0.9272-2.2584 2.0704-2.2584h3.9648c1.144 0 2.0696 1.012 2.0696 2.2584v2.1552zm0-11.126c0 1.2472-0.9256 2.2584-2.0696 2.2584h-3.964c-1.1432 0-2.0704-1.0112-2.0704-2.2584v-2.1552c0-1.248 0.9272-2.2592 2.0704-2.2592h3.9648c1.144 0 2.0696 1.0112 2.0696 2.2592v2.1552zm0-11.126c0 1.248-0.9256 2.2592-2.0696 2.2592h-3.964c-1.1432 0-2.0704-1.0112-2.0704-2.2592v-2.1552c0-1.248 0.9272-2.2592 2.0704-2.2592h3.9648c1.144 0 2.0696 1.0112 2.0696 2.2592v2.1552zm0-11.126c0 1.2472-0.9256 2.2584-2.0696 2.2584h-3.964c-1.1432 0-2.0704-1.0112-2.0704-2.2584v-2.1552c0-1.248 0.9272-2.2592 2.0704-2.2592h3.9648c1.144 0 2.0696 1.0112 2.0696 2.2592v2.1552z"/>
	<script type="text/javascript"><![CDATA[
	var _value

	Object.defineProperty(document.defaultView,'value',
    {enumerable: true,
     get: function() { return _value;},
     set: function(value)
        {   
            if( value!=_value )
            {   
				_value=value
				document.getElementById('film').classList=[value?'highlight':'lowlight']
            }   
        }   
    }) 
	value=false
  ]]></script>
</svg>
