<?xml version="1.0" encoding="UTF-8" standalone="no"?>
<svg
   xmlns:rdf="http://www.w3.org/1999/02/22-rdf-syntax-ns#"
   xmlns="http://www.w3.org/2000/svg"
   enable-background="new 0 0 100 100"
   xml:space="preserve"
   version="1.1"
   x="0px"
   y="0px"
   xmlns:cc="http://creativecommons.org/ns#"
   xmlns:dc="http://purl.org/dc/elements/1.1/"
   viewBox="0 0 100 100"
   id="svg4334"
>
   <style type="text/css">
g.highlight>path {
	fill:#000000;
}

g.lowlight>path {
	fill:#858585;
}
	</style>
<g id="arrow">
	<path
       d="M 68.38,44.223 52.876,28.719 C 52.86,28.703 52.85,28.683 52.833,28.667 52.275,28.109 51.589,27.76 50.868,27.602 50.844,27.597 50.822,27.586 50.798,27.581 50.536,27.529 50.269,27.5 50.003,27.5 l -0.002,0 -0.002,0 c -0.267,0 -0.533,0.028 -0.795,0.081 -0.024,0.005 -0.046,0.015 -0.07,0.021 -0.721,0.158 -1.407,0.507 -1.965,1.065 -0.016,0.016 -0.027,0.036 -0.043,0.052 L 31.62,44.223 c -1.556,1.556 -1.556,4.101 0,5.657 1.556,1.556 4.101,1.556 5.657,0 L 46,41.157 46,68.5 c 0,2.2 1.8,4 4,4 2.2,0 4,-1.8 4,-4 l 0,-27.343 8.723,8.723 c 1.556,1.556 4.101,1.556 5.657,0 1.556,-1.556 1.556,-4.101 0,-5.657 z"
       id="path4338" />
</g>
	<script type="text/javascript"><![CDATA[
	var _value

	Object.defineProperty(document.defaultView,'value',
    {enumerable: true,
     get: function() { return _value;},
     set: function(value)
        {   
            if( value!=_value )
            {   
				_value=value
				document.getElementById('arrow').classList=[value?'highlight':'lowlight']
            }   
        }   
    }) 
	value=false
  ]]></script>
</svg>
