<?xml version="1.0" encoding="UTF-8" standalone="no"?>
<svg
   xmlns:dc="http://purl.org/dc/elements/1.1/"
   xmlns:cc="http://creativecommons.org/ns#"
   xmlns:rdf="http://www.w3.org/1999/02/22-rdf-syntax-ns#"
   xmlns:svg="http://www.w3.org/2000/svg"
   xmlns="http://www.w3.org/2000/svg"
   xmlns:sodipodi="http://sodipodi.sourceforge.net/DTD/sodipodi-0.dtd"
   xmlns:inkscape="http://www.inkscape.org/namespaces/inkscape"
   version="1.1"
   x="0px"
   y="0px"
   viewBox="0 0 100 100.0003"
   enable-background="new 0 0 100 100"
   xml:space="preserve"
   id="svg2"
   width="100"
   height="100.0003"
   inkscape:version="0.91 r"
   sodipodi:docname="stagyy.svg"><sodipodi:namedview
     pagecolor="#ffffff"
     bordercolor="#666666"
     borderopacity="1"
     objecttolerance="10"
     gridtolerance="10"
     guidetolerance="10"
     inkscape:pageopacity="0"
     inkscape:pageshadow="2"
     inkscape:window-width="1920"
     inkscape:window-height="1176"
     id="namedview4147"
     showgrid="false"
     inkscape:zoom="10.08997"
     inkscape:cx="50"
     inkscape:cy="50.000149"
     inkscape:window-x="0"
     inkscape:window-y="24"
     inkscape:window-maximized="1"
     inkscape:current-layer="svg2" /><metadata
     id="metadata16"><rdf:RDF><cc:Work
         rdf:about=""><dc:format>image/svg+xml</dc:format><dc:type
           rdf:resource="http://purl.org/dc/dcmitype/StillImage" /><dc:title /></cc:Work></rdf:RDF></metadata><defs
     id="defs14" /><path
     id="path4236"
     d="M 29.154592,91.939739 C 19.812761,87.232314 12.716386,80.086059 7.9463667,70.582437 -0.08100321,54.588983 2.1312191,34.730926 13.510358,20.637156 14.414194,19.5177 16.350802,17.4564 17.813933,16.056489 26.984613,7.2820621 39.245526,2.6607507 51.840352,3.2314512 c 4.319531,0.1957278 6.053947,0.608469 9.296059,2.2121951 13.753521,6.8032457 16.457044,25.1365377 5.238407,35.5230167 -1.797922,1.66456 -3.052995,2.532437 -5.333785,3.688293 l -1.442629,0.731096 -1.216733,-0.538218 c -1.112318,-0.492031 -1.566588,-0.522306 -5.293642,-0.352786 l -4.076912,0.185433 -3.233412,-1.248784 c -5.837984,-2.254701 -6.284771,-2.525825 -8.52163,-5.171203 -1.609508,-1.903456 -3.935094,-6.114439 -4.158604,-7.530069 -0.09582,-0.606893 -0.03527,-1.772741 0.134551,-2.590772 l 0.308766,-1.487331 1.615222,-0.146463 c 1.819004,-0.164941 2.40344,-0.513102 2.40344,-1.431782 0,-0.802969 -0.725677,-1.191611 -2.582906,-1.383294 -1.923745,-0.198548 -1.935501,-0.763641 -0.04424,-2.126365 2.380904,-1.715531 3.24879,-2.54657 4.587417,-4.392664 1.909747,-2.633716 2.266972,-4.735901 0.926666,-5.453211 -0.4472,-0.239333 -0.622952,-0.202079 -0.912084,0.193333 -0.196982,0.269386 -0.358146,0.661079 -0.358146,0.870429 0,0.20935 -0.454698,1.247138 -1.010441,2.306196 L 37.155274,17.01406 37.0756,15.195266 c -0.04382,-1.000336 -0.184609,-1.818794 -0.312862,-1.818794 -0.543038,0 -1.607615,1.698643 -1.77842,2.837657 -0.204316,1.362482 -1.145864,2.955539 -1.746816,2.955539 -0.230636,0 -0.496732,-0.41812 -0.643055,-1.010441 -0.137285,-0.555743 -0.32031,-1.010441 -0.406723,-1.010441 -0.498304,0 -0.936549,1.474615 -1.041029,3.502863 -0.06489,1.259683 -0.239698,2.441899 -0.388468,2.627147 -0.148769,0.185247 -0.604243,0.336813 -1.012165,0.336813 -1.666748,0 -2.473848,0.327011 -2.747983,1.113395 -0.2834,0.812963 -0.407128,0.86446 -4.105031,1.708563 -1.027114,0.234455 -2.019857,0.552742 -2.206095,0.707306 -0.31273,0.259543 -0.351281,3.04846 -0.04635,3.35339 0.06379,0.06379 1.138122,0.302456 2.387406,0.530371 1.249283,0.227913 2.518718,0.51841 2.820966,0.645551 0.56705,0.238526 1.080407,1.98546 1.749325,5.952875 0.162413,0.963287 0.470344,2.439313 0.684291,3.280054 0.377016,1.481552 1.057254,9.610036 0.823762,9.843529 -0.06365,0.06365 -2.219403,-0.189745 -4.79056,-0.563101 -5.132271,-0.745256 -5.031058,-0.761754 -5.595952,0.912067 -0.299529,0.887528 -0.272106,0.982758 0.465568,1.616706 0.431114,0.370495 2.792268,2.472584 5.247009,4.67131 l 4.463165,3.997685 -0.744871,1.263305 c -2.219227,3.763818 -3.374617,8.574423 -3.180041,13.240484 0.258334,6.195017 2.44868,11.613122 6.508531,16.099696 0.70404,0.77804 1.11727,1.41195 0.918289,1.40869 -0.198981,-0.0033 -1.658285,-0.659247 -3.242897,-1.457746 z M 52.821035,31.555026 c 1.266571,-0.512677 2.954409,-2.159896 3.618218,-3.53114 0.814477,-1.682487 0.811001,-4.076295 -0.0087,-5.959581 -1.938107,-4.453105 -7.964133,-5.540853 -11.439972,-2.065011 -3.214612,3.214611 -2.556737,8.765038 1.307295,11.029513 1.998249,1.17105 4.442859,1.368258 6.523115,0.526219 l -6e-6,0 z"
     style="opacity:1;fill:#000000;fill-opacity:1;stroke:#000000;stroke-width:4;stroke-linecap:round;stroke-linejoin:round;stroke-miterlimit:4;stroke-dasharray:none;stroke-dashoffset:0;stroke-opacity:1" /><path
     id="path4171"
     d="m 28.852552,59.369204 c -0.492432,-0.330347 -1.18899,-0.946045 -1.547905,-1.368217 -0.358916,-0.422172 -1.180144,-1.379574 -1.824952,-2.12756 -0.982531,-1.13975 -1.128703,-1.367089 -0.902671,-1.403907 0.148339,-0.02416 2.146922,0.395437 4.441297,0.932446 l 4.17159,0.976379 -1.119878,1.155799 c -0.615933,0.635689 -1.351576,1.443775 -1.634762,1.795745 -0.283185,0.35197 -0.553696,0.639946 -0.601135,0.639946 -0.04744,0 -0.489152,-0.270284 -0.981584,-0.600631 z"
     style="opacity:1;fill:#000000;fill-opacity:1;stroke:#000000;stroke-width:1;stroke-linecap:round;stroke-linejoin:round;stroke-miterlimit:4;stroke-dasharray:none;stroke-dashoffset:0;stroke-opacity:1" /><circle
     style="opacity:0.98000004;fill:none;fill-opacity:1;stroke:#000000;stroke-width:3;stroke-linecap:round;stroke-linejoin:miter;stroke-miterlimit:4;stroke-dasharray:none;stroke-dashoffset:0;stroke-opacity:1"
     id="path4144"
     cx="50"
     cy="50.000298"
     r="48.5" /><path
     style="opacity:0.98000004;fill:none;fill-opacity:1;stroke:#000000;stroke-width:2.99999976;stroke-linecap:round;stroke-linejoin:miter;stroke-miterlimit:4;stroke-dasharray:none;stroke-dashoffset:0;stroke-opacity:1"
     id="path4146"
     d="m 51.521363,1.50015 a 23.5,23.5 0 0 1 23.499999,23.5 23.5,23.5 0 0 1 -23.499999,23.5" /><path
     style="opacity:0.98000004;fill:none;fill-opacity:1;stroke:#000000;stroke-width:2.99999976;stroke-linecap:round;stroke-linejoin:miter;stroke-miterlimit:4;stroke-dasharray:none;stroke-dashoffset:0;stroke-opacity:1"
     id="path4146-7"
     d="m 50,51.500146 a 23.5,23.5 0 0 0 -23.5,23.5 23.5,23.5 0 0 0 23.499999,23.500003" /><g
     style="fill:#9e4d0b;fill-opacity:1;stroke-width:0.5;stroke-miterlimit:4;stroke-dasharray:none;stroke:none;stroke-opacity:1"
     id="g4"
     transform="translate(-9.504589,-4.5082214)"><path
       d="m 90.692,80.843 c -0.888,-0.629 -1.756,-1.227 -2.605,-1.852 -1.386,-1.02 -2.782,-2.026 -4.124,-3.102 -0.469,-0.376 -0.86,-0.898 -1.162,-1.426 -1.308,-2.284 -2.58,-4.59 -3.839,-6.902 -0.289,-0.531 -0.641,-0.706 -1.259,-0.746 -3.33,-0.216 -6.697,-0.448 -9.739,-1.942 -1.528,-0.751 -3.07,-1.623 -4.171,-3.05 -0.654,-0.848 -1.37,-1.656 -2.125,-2.416 -0.278,-0.28 -0.732,-0.447 -1.135,-0.529 -0.756,-0.154 -1.544,-0.34 -2.297,-0.269 -0.767,0.072 -1.533,0.372 -2.251,0.687 -2.308,1.009 -4.697,1.583 -7.214,1.313 -0.995,-0.106 -1.977,-0.431 -2.934,-0.746 -0.493,-0.162 -0.884,-0.172 -1.153,0.262 -0.568,0.914 -1.358,0.865 -2.251,0.649 -2.666,-0.644 -5.338,-1.263 -8.01,-1.88 -0.25,-0.058 -0.518,-0.037 -0.852,-0.058 1.077,1.254 2.149,2.41 3.112,3.651 0.971,1.251 2.388,1.853 3.635,2.699 0.504,0.342 0.757,0.687 0.679,1.303 -0.054,0.423 -0.01,0.857 -0.01,1.287 -0.072,0.028 -0.144,0.057 -0.215,0.085 -4.19,-3.755 -8.381,-7.509 -12.685,-11.365 0.194,-0.619 0.381,-1.327 0.651,-2.002 0.067,-0.169 0.415,-0.35 0.608,-0.324 1.579,0.208 3.149,0.471 4.725,0.703 1.386,0.205 2.775,0.395 4.164,0.586 0.144,0.02 0.293,0.002 0.572,0.002 -0.043,-0.866 -0.083,-1.71 -0.127,-2.555 -0.007,-0.145 -0.041,-0.288 -0.049,-0.434 -0.101,-1.754 -0.115,-3.518 -0.327,-5.258 -0.145,-1.188 -0.608,-2.333 -0.849,-3.513 -0.25,-1.229 -0.363,-2.484 -0.61,-3.714 -0.24,-1.199 -0.551,-2.385 -0.889,-3.56 -0.056,-0.196 -0.389,-0.396 -0.625,-0.444 -1.561,-0.325 -3.125,-0.638 -4.698,-0.889 -0.468,-0.074 -0.561,-0.31 -0.568,-0.673 -0.013,-0.64 0.07,-1.291 -0.023,-1.917 -0.115,-0.775 0.33,-0.971 0.91,-1.105 1.526,-0.354 3.043,-0.762 4.584,-1.031 0.84,-0.146 1.028,-0.719 1.14,-1.339 0.08,-0.443 0.272,-0.561 0.659,-0.598 0.868,-0.084 1.736,-0.181 2.601,-0.297 0.501,-0.067 0.752,-0.372 0.766,-0.896 0.038,-1.395 0.037,-2.795 0.178,-4.18 0.045,-0.44 0.489,-0.84 0.75,-1.258 0.065,0.024 0.129,0.049 0.194,0.073 0.066,0.459 0.086,0.931 0.213,1.373 0.089,0.312 0.322,0.583 0.491,0.871 0.271,-0.166 0.586,-0.287 0.806,-0.504 0.928,-0.917 1.234,-2.118 1.333,-3.353 0.086,-1.064 0.83,-1.56 1.614,-2.318 0.086,1.292 0.16,2.393 0.245,3.667 0.233,-0.272 0.422,-0.435 0.539,-0.639 0.504,-0.879 1.022,-1.752 1.464,-2.663 0.225,-0.462 0.343,-0.991 0.43,-1.502 0.106,-0.628 0.38,-0.793 0.931,-0.47 0.736,0.431 0.898,1.234 0.664,2.454 -0.257,1.338 -1.281,2.182 -1.929,3.265 -1.2,2.004 -3.229,3.077 -4.992,4.445 -0.546,0.424 -0.924,0.853 -0.854,1.584 0.998,0.121 1.969,0.187 2.915,0.377 0.418,0.084 0.88,0.342 1.155,0.663 0.553,0.647 -0.065,1.545 -1.111,1.667 -0.913,0.106 -1.827,0.2 -2.732,0.298 -0.723,2.26 -0.967,4.459 0.32,6.571 1.093,1.793 1.998,3.761 3.375,5.304 1.352,1.514 2.816,3.042 4.949,3.702 2.158,0.668 4.215,1.657 6.34,2.44 0.507,0.187 1.109,0.152 1.668,0.156 0.732,0.004 1.465,-0.056 2.197,-0.087 1.587,-0.067 3.186,-0.271 4.758,-0.146 0.887,0.07 1.736,0.669 2.593,1.054 2.158,0.969 4.313,1.944 6.464,2.932 0.773,0.355 0.847,0.805 0.461,1.542 -0.2,0.383 -0.299,0.884 -0.262,1.316 0.188,2.182 0.977,4.198 2.135,6.01 0.474,0.739 1.492,1.117 2.219,1.713 0.41,0.336 0.837,0.727 1.075,1.186 1.36,2.621 2.716,5.246 3.964,7.921 0.473,1.013 1.138,1.751 2.018,2.374 1.084,0.767 2.118,1.608 3.232,2.325 0.411,0.265 0.429,0.545 0.402,0.907 -0.06,0.799 -0.139,1.599 -0.222,2.535 z"
       id="path6"
       style="clip-rule:evenodd;fill-rule:evenodd;fill:#9e4d0b;fill-opacity:1;stroke-width:0.5;stroke-miterlimit:4;stroke-dasharray:none;stroke:none;stroke-opacity:1" /></g><circle
     r="5"
     cy="75.000298"
     cx="50"
     id="path4173"
     style="opacity:1;fill:#000000;fill-opacity:1;stroke:none;stroke-width:1;stroke-linecap:round;stroke-linejoin:round;stroke-miterlimit:4;stroke-dasharray:none;stroke-dashoffset:0;stroke-opacity:1" /></svg>