<?xml version="1.0" encoding="UTF-8" standalone="no"?>
<svg
   xmlns:dc="http://purl.org/dc/elements/1.1/"
   xmlns:cc="http://creativecommons.org/ns#"
   xmlns:rdf="http://www.w3.org/1999/02/22-rdf-syntax-ns#"
   xmlns:svg="http://www.w3.org/2000/svg"
   xmlns="http://www.w3.org/2000/svg"
   height="100"
   width="100"
   id="svg4328"
   xml:space="preserve"
   enable-background="new 0 0 100 100"
   viewBox="0 0 100 100"
   y="0px"
   x="0px"
   version="1.1"><metadata
     id="metadata4348"><rdf:RDF><cc:Work
         rdf:about=""><dc:format>image/svg+xml</dc:format><dc:type
           rdf:resource="http://purl.org/dc/dcmitype/StillImage" /><dc:title></dc:title></cc:Work></rdf:RDF></metadata><defs
     id="defs4346" /><g
     transform="translate(-1.2505,25)"
     id="g4890"><rect
       x="48.459"
       y="-2.4740009"
       width="5.5799999"
       height="1.548"
       id="rect4330" /><rect
       x="48.459"
       y="11.891998"
       width="5.5799999"
       height="1.5549999"
       id="rect4332" /><rect
       x="48.459"
       y="26.264"
       width="5.5799999"
       height="1.552"
       id="rect4334" /><path
       d="m 61.799,39.792 0,-49.248 c 0,-5.822 -4.723,-10.544 -10.55,-10.544 -5.818,0 -10.99,4.723 -10.99,10.544 l 0,49.615 c -3.641,3.11 -5.961,7.728 -5.961,12.893 0,9.36 7.588,16.948 16.952,16.948 9.365,0 16.953,-7.588 16.953,-16.948 -0.001,-5.373 -2.506,-10.154 -6.404,-13.26 z m -10.55,24.515 c -6.203,0 -11.235,-5.032 -11.235,-11.238 0,-4.164 2.292,-7.758 5.655,-9.7 l 0,-50.814 c 0,-3.038 2.545,-5.499 5.58,-5.499 3.035,0 5.589,2.46 5.589,5.499 l 0,50.816 c 3.361,1.943 5.648,5.536 5.648,9.697 0,6.206 -5.023,11.239 -11.237,11.239 z"
       id="path4336" /><path
       d="m 54.254,45.692 0,-10.946 -6.006,0 0,10.946 c -2.911,1.188 -4.968,4.038 -4.968,7.376 0,4.403 3.569,7.973 7.969,7.973 4.409,0 7.97,-3.569 7.97,-7.973 0,-3.338 -2.051,-6.188 -4.965,-7.376 z"
       id="path4338" /></g></svg>