<svg xmlns="http://www.w3.org/2000/svg" xmlns:xlink="http://www.w3.org/1999/xlink" version="1.1" x="0px" y="0px" viewBox="0 0 100 125" enable-background="new 0 0 100 100" xml:space="preserve"><g><path d="M68.38,44.223L52.876,28.719c-0.016-0.016-0.026-0.036-0.043-0.052c-0.558-0.558-1.244-0.907-1.965-1.065   c-0.024-0.005-0.046-0.016-0.07-0.021c-0.262-0.052-0.529-0.081-0.795-0.081c-0.001,0-0.002,0-0.002,0s-0.002,0-0.002,0   c-0.267,0-0.533,0.028-0.795,0.081c-0.024,0.005-0.046,0.015-0.07,0.021c-0.721,0.158-1.407,0.507-1.965,1.065   c-0.016,0.016-0.027,0.036-0.043,0.052L31.62,44.223c-1.556,1.556-1.556,4.101,0,5.657c1.556,1.556,4.101,1.556,5.657,0L46,41.157   V68.5c0,2.2,1.8,4,4,4s4-1.8,4-4V41.157l8.723,8.723c1.556,1.556,4.101,1.556,5.657,0C69.936,48.324,69.936,45.779,68.38,44.223z"/></g><g display="none"><path display="inline" d="M50,95c24.853,0,45-20.147,45-45C95,25.148,74.853,5,50,5C25.148,5,5,25.148,5,50   C5,74.853,25.148,95,50,95z M31.62,50.12c1.556-1.556,4.101-1.556,5.657,0L46,58.843V31.5c0-2.2,1.8-4,4-4s4,1.8,4,4v27.343   l8.723-8.723c1.556-1.556,4.101-1.556,5.657,0c1.556,1.556,1.556,4.101,0,5.657L52.876,71.281   c-0.016,0.016-0.026,0.036-0.043,0.052c-0.558,0.558-1.244,0.907-1.965,1.065c-0.024,0.005-0.046,0.016-0.07,0.021   c-0.262,0.052-0.529,0.081-0.795,0.081c-0.001,0-0.002,0-0.002,0s-0.002,0-0.002,0c-0.267,0-0.533-0.028-0.795-0.081   c-0.024-0.005-0.046-0.015-0.07-0.021c-0.721-0.158-1.407-0.507-1.965-1.065c-0.016-0.016-0.027-0.036-0.043-0.052L31.62,55.777   C30.064,54.221,30.064,51.676,31.62,50.12z"/></g><g display="none"><g display="inline"><path d="M50,95c24.853,0,45-20.147,45-45C95,25.148,74.853,5,50,5C25.148,5,5,25.148,5,50C5,74.853,25.148,95,50,95z M50,10    c22.092,0,40,17.909,40,40c0,22.092-17.908,40-40,40c-22.091,0-40-17.908-40-40C10,27.909,27.909,10,50,10z"/><path d="M31.62,55.777l15.504,15.504c0.016,0.016,0.026,0.036,0.043,0.052c0.558,0.558,1.244,0.907,1.965,1.065    c0.024,0.005,0.046,0.016,0.07,0.021c0.262,0.052,0.529,0.081,0.795,0.081c0.001,0,0.002,0,0.002,0s0.002,0,0.002,0    c0.267,0,0.533-0.028,0.795-0.081c0.024-0.005,0.046-0.015,0.07-0.021c0.721-0.158,1.407-0.507,1.965-1.065    c0.016-0.016,0.027-0.036,0.043-0.052L68.38,55.777c1.556-1.556,1.556-4.101,0-5.657c-1.556-1.556-4.101-1.556-5.657,0L54,58.843    V31.5c0-2.2-1.8-4-4-4s-4,1.8-4,4v27.343l-8.723-8.723c-1.556-1.556-4.101-1.556-5.657,0    C30.064,51.676,30.064,54.221,31.62,55.777z"/></g></g><text x="0" y="115" fill="#000000" font-size="5px" font-weight="bold" font-family="'Helvetica Neue', Helvetica, Arial-Unicode, Arial, Sans-serif">Created by Marc Grützmacher</text><text x="0" y="120" fill="#000000" font-size="5px" font-weight="bold" font-family="'Helvetica Neue', Helvetica, Arial-Unicode, Arial, Sans-serif">from the Noun Project</text></svg>