<?xml version="1.0" encoding="UTF-8" standalone="no"?>
<svg
   xmlns="http://www.w3.org/2000/svg"
   version="1.1"
	height="85" width="512">
<path id="contour_310.000000.0" d="M 0.000000 10.007692 258.000000 10.210046 259.000000 10.013305 511.000000 10.007692" style="fill:none; stroke: #000000"/>
   <path id="contour_1550.000000.0" d="M 0.000000 10.961539 0.389940 12.000000 2.000000 13.795088 3.000000 14.664118 3.620657 15.000000 5.000000 15.868251 6.000000 16.447665 258.000000 16.669542 260.515215 17.000000 263.588751 18.000000 266.955594 20.000000 269.000000 21.851625 270.720628 24.000000 272.000000 24.934795 273.000000 24.736558 273.736566 24.000000 275.000000 23.700439 275.700439 23.000000 276.000000 22.929167 276.929167 22.000000 276.605086 21.000000 276.000000 20.394914 275.947292 20.000000 275.000000 19.052707 274.000000 18.117363 273.000000 17.041445 272.000000 16.078609 271.000000 15.039177 270.000000 14.089465 269.000000 14.044103 268.000000 13.066707 267.000000 13.046554 266.000000 12.100130 265.000000 12.045554 264.000000 11.071651 261.000000 11.048718 260.912192 11.000000 268.000000 10.961542 269.000000 11.957424 270.000000 11.957424 271.000000 12.903056 271.462378 13.000000 272.000000 13.537623 274.000000 13.834436 500.000000 13.834436 500.672137 13.000000 500.903072 12.000000 500.957441 11.000000 511.000000 10.961539" style="fill:none; stroke: #000000;"/>
   Sorry, your browser does not support inline SVG.
</svg>
    
