<?xml version="1.0" encoding="UTF-8" standalone="no"?>
<!-- Created with Inkscape (http://www.inkscape.org/) -->

<svg
   xmlns:dc="http://purl.org/dc/elements/1.1/"
   xmlns:cc="http://creativecommons.org/ns#"
   xmlns:rdf="http://www.w3.org/1999/02/22-rdf-syntax-ns#"
   xmlns:svg="http://www.w3.org/2000/svg"
   xmlns="http://www.w3.org/2000/svg"
   xmlns:sodipodi="http://sodipodi.sourceforge.net/DTD/sodipodi-0.dtd"
   xmlns:inkscape="http://www.inkscape.org/namespaces/inkscape"
   width="300"
   height="300"
   viewBox="0 0 300.00001 300.00001"
   id="svg2"
   version="1.1"
   inkscape:version="0.91 r"
   sodipodi:docname="h5_field.svg">
  <defs
     id="defs4" />
  <sodipodi:namedview
     id="base"
     pagecolor="#ffffff"
     bordercolor="#666666"
     borderopacity="1.0"
     inkscape:pageopacity="0.0"
     inkscape:pageshadow="2"
     inkscape:zoom="1.7691406"
     inkscape:cx="-19.095761"
     inkscape:cy="165.56212"
     inkscape:document-units="px"
     inkscape:current-layer="layer1"
     showgrid="false"
     showguides="true"
     inkscape:guide-bbox="true"
     units="px"
     inkscape:object-nodes="true"
     inkscape:snap-intersection-paths="true"
     inkscape:object-paths="true"
     inkscape:snap-midpoints="true"
     inkscape:snap-smooth-nodes="true"
     inkscape:snap-bbox="true"
     inkscape:bbox-paths="true"
     inkscape:bbox-nodes="true"
     inkscape:snap-bbox-midpoints="true"
     inkscape:window-width="1280"
     inkscape:window-height="776"
     inkscape:window-x="0"
     inkscape:window-y="24"
     inkscape:window-maximized="1">
    <sodipodi:guide
       position="40.000001,225.42484"
       orientation="1,0"
       id="guide4275"
       inkscape:label=""
       inkscape:color="rgb(0,0,255)" />
    <sodipodi:guide
       position="260.00001,243.81055"
       orientation="1,0"
       id="guide4277"
       inkscape:label=""
       inkscape:color="rgb(0,0,255)" />
    <sodipodi:guide
       position="177.46211,77.539749"
       orientation="1,0"
       id="guide4279" />
    <sodipodi:guide
       position="83.93478,259.79813"
       orientation="0,1"
       id="guide4281" />
    <sodipodi:guide
       position="330.14347,300.00001"
       orientation="0,1"
       id="guide4283"
       inkscape:label=""
       inkscape:color="rgb(0,0,255)" />
    <sodipodi:guide
       position="328.54471,195.84782"
       orientation="0,1"
       id="guide4285" />
    <sodipodi:guide
       position="25.980001,0"
       orientation="0,1"
       id="guide4316"
       inkscape:label=""
       inkscape:color="rgb(0,0,255)" />
    <sodipodi:guide
       position="17.586335,205.84801"
       orientation="0,1"
       id="guide4322"
       inkscape:label=""
       inkscape:color="rgb(0,0,255)" />
    <sodipodi:guide
       position="201.45101,319.75154"
       orientation="1,0"
       id="guide4324"
       inkscape:label=""
       inkscape:color="rgb(0,0,255)" />
    <sodipodi:guide
       position="218.63012,290.57421"
       orientation="0,1"
       id="guide4341" />
    <sodipodi:guide
       position="83.373816,141.31155"
       orientation="1,0"
       id="guide4391" />
  </sodipodi:namedview>
  <metadata
     id="metadata7">
    <rdf:RDF>
      <cc:Work
         rdf:about="">
        <dc:format>image/svg+xml</dc:format>
        <dc:type
           rdf:resource="http://purl.org/dc/dcmitype/StillImage" />
        <dc:title></dc:title>
      </cc:Work>
    </rdf:RDF>
  </metadata>
  <g
     inkscape:label="Layer 1"
     inkscape:groupmode="layer"
     id="layer1"
     transform="translate(0,-752.36222)">
    <path
       style="color:#000000;clip-rule:nonzero;display:inline;overflow:visible;visibility:visible;opacity:1;isolation:auto;mix-blend-mode:normal;color-interpolation:sRGB;color-interpolation-filters:linearRGB;solid-color:#000000;solid-opacity:1;fill:#00abff;fill-opacity:1;fill-rule:nonzero;stroke:none;stroke-width:10;stroke-linecap:butt;stroke-linejoin:miter;stroke-miterlimit:4;stroke-dasharray:none;stroke-dashoffset:0;stroke-opacity:1;color-rendering:auto;image-rendering:auto;shape-rendering:auto;text-rendering:auto;enable-background:accumulate"
       d="M 40 0 L 40 300 L 260 300 L 260 0 L 40 0 z M 66.240234 22.007812 L 79.072266 22.007812 L 79.072266 49.517578 L 105.17578 49.517578 L 105.17578 22.007812 L 117.96484 22.007812 L 117.96484 85.992188 L 105.17578 85.992188 L 105.17578 59.40625 L 79.072266 59.40625 L 79.072266 85.992188 L 66.240234 85.992188 L 66.240234 22.007812 z M 130.04883 22.007812 L 150.70312 22.007812 C 159.58008 22.007812 166.61133 24.556644 171.79688 29.654297 C 177.01172 34.722657 179.61914 41.460941 179.61914 49.869141 L 179.61914 58.175781 C 179.61914 66.642575 177.01172 73.394527 171.79688 78.433594 C 166.58203 83.472654 159.47851 85.992188 150.48438 85.992188 L 130.04883 85.992188 L 130.04883 22.007812 z M 189.99023 22.007812 L 233.75977 22.007812 L 233.75977 31.896484 L 202.82227 31.896484 L 202.82227 49.517578 L 229.27734 49.517578 L 229.27734 59.40625 L 202.82227 59.40625 L 202.82227 85.992188 L 189.99023 85.992188 L 189.99023 22.007812 z M 142.88086 31.896484 L 142.88086 76.148438 L 149.82422 76.148438 C 155.68359 76.148438 159.96094 74.566404 162.65625 71.402344 C 165.38086 68.208984 166.74219 63.800781 166.74219 58.175781 L 166.74219 49.78125 C 166.74219 44.126957 165.39648 39.732423 162.70117 36.597656 C 160.03515 33.46289 155.8164 31.896484 150.04492 31.896484 L 142.88086 31.896484 z M 75 120 L 80 120 L 104 120 L 109 120 L 133 120 L 138 120 L 162 120 L 167 120 L 191 120 L 196 120 L 220 120 L 225 120 L 225 125 L 225 265 L 225 270 L 80 270 L 75 270 L 75 241 L 75 236 L 75 212 L 75 207 L 75 183 L 75 178 L 75 154 L 75 149 L 75 125 L 75 120 z M 80 125 L 80 149 L 104 149 L 104 125 L 80 125 z M 109 125 L 109 149 L 133 149 L 133 125 L 109 125 z M 138 125 L 138 149 L 162 149 L 162 125 L 138 125 z M 167 125 L 167 149 L 191 149 L 191 125 L 167 125 z M 196 125 L 196 149 L 220 149 L 220 125 L 196 125 z M 80 154 L 80 178 L 104 178 L 104 154 L 80 154 z M 109 154 L 109 178 L 133 178 L 133 154 L 109 154 z M 138 154 L 138 178 L 162 178 L 162 154 L 138 154 z M 167 154 L 167 178 L 191 178 L 191 154 L 167 154 z M 196 154 L 196 178 L 220 178 L 220 154 L 196 154 z M 80 183 L 80 207 L 104 207 L 104 183 L 80 183 z M 109 183 L 109 207 L 133 207 L 133 183 L 109 183 z M 138 183 L 138 207 L 162 207 L 162 183 L 138 183 z M 167 183 L 167 207 L 191 207 L 191 183 L 167 183 z M 196 183 L 196 207 L 220 207 L 220 183 L 196 183 z M 80 212 L 80 236 L 104 236 L 104 212 L 80 212 z M 109 212 L 109 236 L 133 236 L 133 212 L 109 212 z M 138 212 L 138 236 L 162 236 L 162 212 L 138 212 z M 167 212 L 167 236 L 191 236 L 191 212 L 167 212 z M 196 212 L 196 236 L 220 236 L 220 212 L 196 212 z M 80 241 L 80 265 L 104 265 L 104 241 L 80 241 z M 109 241 L 109 265 L 133 265 L 133 241 L 109 241 z M 138 241 L 138 265 L 162 265 L 162 241 L 138 241 z M 167 241 L 167 265 L 191 265 L 191 241 L 167 241 z M 196 241 L 196 265 L 220 265 L 220 241 L 196 241 z "
       transform="translate(0,752.36222)"
       id="rect4259" />
    <g
       id="text4230"
       style="font-style:normal;font-variant:normal;font-weight:normal;font-stretch:normal;font-size:27.5px;line-height:125%;font-family:'Abyssinica SIL';-inkscape-font-specification:'Abyssinica SIL, Normal';text-align:start;letter-spacing:0px;word-spacing:0px;writing-mode:lr-tb;text-anchor:start;fill:#000000;fill-opacity:1;stroke:none;stroke-width:1px;stroke-linecap:butt;stroke-linejoin:miter;stroke-opacity:1" />
    <g
       id="g5213" />
  </g>
</svg>
