<?xml version="1.0" encoding="UTF-8" standalone="no"?>
<svg
   xmlns:dc="http://purl.org/dc/elements/1.1/"
   xmlns:cc="http://creativecommons.org/ns#"
   xmlns:rdf="http://www.w3.org/1999/02/22-rdf-syntax-ns#"
   xmlns:svg="http://www.w3.org/2000/svg"
   xmlns="http://www.w3.org/2000/svg"
   xmlns:sodipodi="http://sodipodi.sourceforge.net/DTD/sodipodi-0.dtd"
   xmlns:inkscape="http://www.inkscape.org/namespaces/inkscape"
   version="1.1"
   x="0px"
   y="0px"
   viewBox="0 0 300 300.00001"
   enable-background="new 0 0 100 100"
   xml:space="preserve"
   id="svg2"
   width="300"
   height="300"
   inkscape:version="0.91 r"
   sodipodi:docname="stagyy.svg"><sodipodi:namedview
     pagecolor="#ffffff"
     bordercolor="#666666"
     borderopacity="1"
     objecttolerance="10"
     gridtolerance="10"
     guidetolerance="10"
     inkscape:pageopacity="0"
     inkscape:pageshadow="2"
     inkscape:window-width="1280"
     inkscape:window-height="776"
     id="namedview4147"
     showgrid="false"
     inkscape:zoom="1.1269878"
     inkscape:cx="185.8276"
     inkscape:cy="138.51764"
     inkscape:window-x="0"
     inkscape:window-y="24"
     inkscape:window-maximized="1"
     inkscape:current-layer="svg2" /><metadata
     id="metadata16"><rdf:RDF><cc:Work
         rdf:about=""><dc:format>image/svg+xml</dc:format><dc:type
           rdf:resource="http://purl.org/dc/dcmitype/StillImage" /><dc:title></dc:title></cc:Work></rdf:RDF></metadata><defs
     id="defs14" /><path
     style="color:#000000;clip-rule:nonzero;display:inline;overflow:visible;visibility:visible;opacity:1;isolation:auto;mix-blend-mode:normal;color-interpolation:sRGB;color-interpolation-filters:linearRGB;solid-color:#000000;solid-opacity:1;fill:#000000;fill-opacity:1;fill-rule:nonzero;stroke:#000000;stroke-width:5;stroke-linecap:square;stroke-linejoin:miter;stroke-miterlimit:4;stroke-dasharray:none;stroke-dashoffset:0;stroke-opacity:1;color-rendering:auto;image-rendering:auto;shape-rendering:auto;text-rendering:auto;enable-background:accumulate"
     d="M 149.67773 43.617188 C 126.6215 43.617188 104.47915 51.122065 85.574219 65.34375 C 64.807568 80.965964 50.959516 103.21689 45.255859 130.13086 C 43.212669 139.77211 43.235386 160.37565 45.298828 170.06055 C 53.078912 206.57693 76.710844 235.11139 110.70117 249.0293 C 114.95013 250.76911 123.49459 253.86516 124.76758 254.06445 C 126.04056 254.26374 120.0427 251.5654 118.10547 250.1875 C 112.0222 245.86063 105.2266 237.74277 101.69727 230.58398 C 93.777543 214.5198 93.652961 197.60588 101.33789 181.67578 C 102.50693 179.25249 103.46484 177.02186 103.46484 176.71875 C 103.46484 176.41564 98.07869 171.40016 91.496094 165.57227 C 84.913496 159.74438 79.523378 154.35258 79.517578 153.5918 C 79.511816 152.83103 80.052379 151.46087 80.720703 150.54688 C 81.89717 148.93797 82.270734 148.93295 92.408203 150.375 C 98.167075 151.1942 103.00114 151.743 103.15039 151.59375 C 103.29964 151.4445 103.07022 146.95281 102.64062 141.61328 C 101.74842 130.52392 97.617147 110.05152 96.080078 109.10156 C 95.513741 108.75154 93.010892 108.21166 90.519531 107.90039 C 84.30353 107.12375 83.78088 106.65163 84.107422 102.12109 C 84.37641 98.389102 84.518434 98.215503 87.935547 97.466797 C 96.522163 95.585431 97.947085 95.025602 98.382812 93.359375 C 98.688223 92.191481 99.914908 91.468615 102.25586 91.078125 C 107.98883 90.121813 107.90039 90.231634 107.90039 84.126953 C 107.90039 80.225903 108.30736 78.102171 109.19531 77.365234 C 110.26183 76.4801 110.59148 76.69563 111.06641 78.587891 C 111.38343 79.851026 111.98824 80.884766 112.41211 80.884766 C 113.50936 80.884766 115.5665 77.355911 116.29297 74.228516 C 116.91598 71.546522 119.11651 68.460938 120.40625 68.460938 C 120.78918 68.460938 121.22744 69.958962 121.37891 71.789062 L 121.6543 75.117188 L 123.65039 71.380859 C 124.74845 69.326188 125.64648 67.018752 125.64648 66.251953 C 125.64648 64.478319 128.12558 63.486905 129.39258 64.753906 C 132.68895 68.05028 127.49585 77.816091 118.82422 84.630859 C 115.74402 87.051495 113.22461 89.327766 113.22461 89.689453 C 113.22461 90.051138 115.1173 90.714296 117.43164 91.162109 C 120.51456 91.75864 121.72657 92.434177 121.96484 93.691406 C 122.38808 95.924656 119.82957 97.744141 116.26367 97.744141 C 113.0849 97.744141 112.37061 99.124754 112.34961 105.30469 C 112.3406 107.95742 113.38616 110.66289 116.42578 115.85547 C 122.55219 126.32123 126.48541 129.6836 137.68359 134.02344 C 146.73959 137.53308 147.49168 137.67383 157.19727 137.67383 C 164.62797 137.67383 168.07895 138.04829 170.27539 139.0957 C 173.15229 140.4676 173.43044 140.43207 178.06836 138.08398 C 180.71589 136.74359 185.71224 132.81162 189.17969 129.33984 C 213.78067 104.7081 206.52373 63.667898 174.89258 48.535156 C 166.81962 44.672948 161.40638 43.617188 149.67773 43.617188 z M 150 82.886719 A 16.185499 16.185514 0 0 1 166.18555 99.072266 A 16.185499 16.185514 0 0 1 150 115.25781 A 16.185499 16.185514 0 0 1 133.81445 99.072266 A 16.185499 16.185514 0 0 1 150 82.886719 z "
     id="path6497" /><path
     style="color:#000000;clip-rule:nonzero;display:inline;overflow:visible;visibility:visible;opacity:1;isolation:auto;mix-blend-mode:normal;color-interpolation:sRGB;color-interpolation-filters:linearRGB;solid-color:#000000;solid-opacity:1;fill:#000000;fill-opacity:1;fill-rule:nonzero;stroke:#000000;stroke-width:5.49999981;stroke-linecap:square;stroke-linejoin:miter;stroke-miterlimit:4;stroke-dasharray:none;stroke-dashoffset:0;stroke-opacity:1;color-rendering:auto;image-rendering:auto;shape-rendering:auto;text-rendering:auto;enable-background:accumulate"
     d="m 103.50039,171.43422 c -2.37197,-1.55215 -3.44101,-2.54231 -5.959856,-5.52009 -1.688179,-1.99577 -3.539933,-4.17983 -4.11501,-4.85346 -0.852796,-0.99895 -0.941762,-1.22479 -0.482487,-1.22479 0.309709,0 4.803625,1.00502 9.986483,2.23337 5.18285,1.22835 10.01469,2.25185 10.73741,2.27444 l 1.31403,0.0411 -2.96315,2.94888 c -1.62973,1.62188 -3.48531,3.63358 -4.12351,4.47044 -0.63819,0.83686 -1.23755,1.52157 -1.33191,1.52157 -0.0944,0 -1.47226,-0.85114 -3.062,-1.89143 z"
     id="path6499"
     inkscape:connector-curvature="0" /><ellipse
     style="opacity:0.98000004;fill:none;fill-opacity:1;stroke:#000000;stroke-width:3;stroke-linecap:round;stroke-linejoin:miter;stroke-miterlimit:4;stroke-dasharray:none;stroke-dashoffset:0;stroke-opacity:1"
     id="path4144"
     cx="150"
     cy="150.00024"
     rx="108.5"
     ry="108.50008" /><path
     inkscape:connector-curvature="0"
     style="opacity:0.98000004;fill:none;fill-opacity:1;stroke:#000000;stroke-width:2.99999976;stroke-linecap:round;stroke-linejoin:miter;stroke-miterlimit:4;stroke-dasharray:none;stroke-dashoffset:0;stroke-opacity:1"
     id="path4146"
     d="m 153.40346,41.499822 a 52.572165,52.572207 0 0 1 52.57216,52.572208 52.572165,52.572207 0 0 1 -52.57216,52.57221" /><path
     inkscape:connector-curvature="0"
     style="opacity:0.98000004;fill:none;fill-opacity:1;stroke:#000000;stroke-width:2.99999976;stroke-linecap:round;stroke-linejoin:miter;stroke-miterlimit:4;stroke-dasharray:none;stroke-dashoffset:0;stroke-opacity:1"
     id="path4146-7"
     d="M 150,153.35557 A 52.572165,52.572207 0 0 0 97.427835,205.92778 52.572165,52.572207 0 0 0 150,258.49999" /><g
     style="fill:#9e4d0b;fill-opacity:1;stroke:none;stroke-width:0.5;stroke-miterlimit:4;stroke-dasharray:none;stroke-opacity:1"
     id="g4"
     transform="matrix(2.2371134,0,0,2.2371152,16.881487,28.058403)"><path
       inkscape:connector-curvature="0"
       d="m 90.692,80.843 c -0.888,-0.629 -1.756,-1.227 -2.605,-1.852 -1.386,-1.02 -2.782,-2.026 -4.124,-3.102 -0.469,-0.376 -0.86,-0.898 -1.162,-1.426 -1.308,-2.284 -2.58,-4.59 -3.839,-6.902 -0.289,-0.531 -0.641,-0.706 -1.259,-0.746 -3.33,-0.216 -6.697,-0.448 -9.739,-1.942 -1.528,-0.751 -3.07,-1.623 -4.171,-3.05 -0.654,-0.848 -1.37,-1.656 -2.125,-2.416 -0.278,-0.28 -0.732,-0.447 -1.135,-0.529 -0.756,-0.154 -1.544,-0.34 -2.297,-0.269 -0.767,0.072 -1.533,0.372 -2.251,0.687 -2.308,1.009 -4.697,1.583 -7.214,1.313 -0.995,-0.106 -1.977,-0.431 -2.934,-0.746 -0.493,-0.162 -0.884,-0.172 -1.153,0.262 -0.568,0.914 -1.358,0.865 -2.251,0.649 -2.666,-0.644 -5.338,-1.263 -8.01,-1.88 -0.25,-0.058 -0.518,-0.037 -0.852,-0.058 1.077,1.254 2.149,2.41 3.112,3.651 0.971,1.251 2.388,1.853 3.635,2.699 0.504,0.342 0.757,0.687 0.679,1.303 -0.054,0.423 -0.01,0.857 -0.01,1.287 -0.072,0.028 -0.144,0.057 -0.215,0.085 -4.19,-3.755 -8.381,-7.509 -12.685,-11.365 0.194,-0.619 0.381,-1.327 0.651,-2.002 0.067,-0.169 0.415,-0.35 0.608,-0.324 1.579,0.208 3.149,0.471 4.725,0.703 1.386,0.205 2.775,0.395 4.164,0.586 0.144,0.02 0.293,0.002 0.572,0.002 -0.043,-0.866 -0.083,-1.71 -0.127,-2.555 -0.007,-0.145 -0.041,-0.288 -0.049,-0.434 -0.101,-1.754 -0.115,-3.518 -0.327,-5.258 -0.145,-1.188 -0.608,-2.333 -0.849,-3.513 -0.25,-1.229 -0.363,-2.484 -0.61,-3.714 -0.24,-1.199 -0.551,-2.385 -0.889,-3.56 -0.056,-0.196 -0.389,-0.396 -0.625,-0.444 -1.561,-0.325 -3.125,-0.638 -4.698,-0.889 -0.468,-0.074 -0.561,-0.31 -0.568,-0.673 -0.013,-0.64 0.07,-1.291 -0.023,-1.917 -0.115,-0.775 0.33,-0.971 0.91,-1.105 1.526,-0.354 3.043,-0.762 4.584,-1.031 0.84,-0.146 1.028,-0.719 1.14,-1.339 0.08,-0.443 0.272,-0.561 0.659,-0.598 0.868,-0.084 1.736,-0.181 2.601,-0.297 0.501,-0.067 0.752,-0.372 0.766,-0.896 0.038,-1.395 0.037,-2.795 0.178,-4.18 0.045,-0.44 0.489,-0.84 0.75,-1.258 0.065,0.024 0.129,0.049 0.194,0.073 0.066,0.459 0.086,0.931 0.213,1.373 0.089,0.312 0.322,0.583 0.491,0.871 0.271,-0.166 0.586,-0.287 0.806,-0.504 0.928,-0.917 1.234,-2.118 1.333,-3.353 0.086,-1.064 0.83,-1.56 1.614,-2.318 0.086,1.292 0.16,2.393 0.245,3.667 0.233,-0.272 0.422,-0.435 0.539,-0.639 0.504,-0.879 1.022,-1.752 1.464,-2.663 0.225,-0.462 0.343,-0.991 0.43,-1.502 0.106,-0.628 0.38,-0.793 0.931,-0.47 0.736,0.431 0.898,1.234 0.664,2.454 -0.257,1.338 -1.281,2.182 -1.929,3.265 -1.2,2.004 -3.229,3.077 -4.992,4.445 -0.546,0.424 -0.924,0.853 -0.854,1.584 0.998,0.121 1.969,0.187 2.915,0.377 0.418,0.084 0.88,0.342 1.155,0.663 0.553,0.647 -0.065,1.545 -1.111,1.667 -0.913,0.106 -1.827,0.2 -2.732,0.298 -0.723,2.26 -0.967,4.459 0.32,6.571 1.093,1.793 1.998,3.761 3.375,5.304 1.352,1.514 2.816,3.042 4.949,3.702 2.158,0.668 4.215,1.657 6.34,2.44 0.507,0.187 1.109,0.152 1.668,0.156 0.732,0.004 1.465,-0.056 2.197,-0.087 1.587,-0.067 3.186,-0.271 4.758,-0.146 0.887,0.07 1.736,0.669 2.593,1.054 2.158,0.969 4.313,1.944 6.464,2.932 0.773,0.355 0.847,0.805 0.461,1.542 -0.2,0.383 -0.299,0.884 -0.262,1.316 0.188,2.182 0.977,4.198 2.135,6.01 0.474,0.739 1.492,1.117 2.219,1.713 0.41,0.336 0.837,0.727 1.075,1.186 1.36,2.621 2.716,5.246 3.964,7.921 0.473,1.013 1.138,1.751 2.018,2.374 1.084,0.767 2.118,1.608 3.232,2.325 0.411,0.265 0.429,0.545 0.402,0.907 -0.06,0.799 -0.139,1.599 -0.222,2.535 z"
       id="path6"
       style="clip-rule:evenodd;fill:#9e4d0b;fill-opacity:1;fill-rule:evenodd;stroke:none;stroke-width:0.5;stroke-miterlimit:4;stroke-dasharray:none;stroke-opacity:1" /></g><ellipse
     cy="205.92812"
     cx="150"
     id="path4173"
     style="opacity:1;fill:#000000;fill-opacity:1;stroke:none;stroke-width:1;stroke-linecap:round;stroke-linejoin:round;stroke-miterlimit:4;stroke-dasharray:none;stroke-dashoffset:0;stroke-opacity:1"
     rx="11.185567"
     ry="11.185576" /></svg>