<?xml version="1.0" encoding="UTF-8" standalone="no"?>
<svg
   xmlns:dc="http://purl.org/dc/elements/1.1/"
   xmlns:cc="http://creativecommons.org/ns#"
   xmlns:rdf="http://www.w3.org/1999/02/22-rdf-syntax-ns#"
   xmlns:svg="http://www.w3.org/2000/svg"
   xmlns="http://www.w3.org/2000/svg"
   xmlns:sodipodi="http://sodipodi.sourceforge.net/DTD/sodipodi-0.dtd"
   xmlns:inkscape="http://www.inkscape.org/namespaces/inkscape"
   height="300"
   width="300"
   id="svg4328"
   xml:space="preserve"
   enable-background="new 0 0 100 100"
   viewBox="0 0 300 300"
   y="0px"
   x="0px"
   version="1.1"
   inkscape:version="0.91 r"
   sodipodi:docname="temperature.svg"><sodipodi:namedview
     pagecolor="#ffffff"
     bordercolor="#666666"
     borderopacity="1"
     objecttolerance="10"
     gridtolerance="10"
     guidetolerance="10"
     inkscape:pageopacity="0"
     inkscape:pageshadow="2"
     inkscape:window-width="1280"
     inkscape:window-height="776"
     id="namedview6703"
     showgrid="false"
     inkscape:zoom="0.74556641"
     inkscape:cx="-36.586544"
     inkscape:cy="44.431291"
     inkscape:window-x="0"
     inkscape:window-y="24"
     inkscape:window-maximized="1"
     inkscape:current-layer="svg4328" /><metadata
     id="metadata4348"><rdf:RDF><cc:Work
         rdf:about=""><dc:format>image/svg+xml</dc:format><dc:type
           rdf:resource="http://purl.org/dc/dcmitype/StillImage" /><dc:title></dc:title></cc:Work></rdf:RDF></metadata><defs
     id="defs4346" /><path
     style="color:#000000;clip-rule:nonzero;display:inline;overflow:visible;visibility:visible;opacity:1;isolation:auto;mix-blend-mode:normal;color-interpolation:sRGB;color-interpolation-filters:linearRGB;solid-color:#000000;solid-opacity:1;fill:#00ba49;fill-opacity:1;fill-rule:nonzero;stroke:none;stroke-width:5;stroke-linecap:square;stroke-linejoin:miter;stroke-miterlimit:4;stroke-dasharray:none;stroke-dashoffset:0;stroke-opacity:1;color-rendering:auto;image-rendering:auto;shape-rendering:auto;text-rendering:auto;enable-background:accumulate"
     d="M 40 0 L 40 300 L 260 300 L 260 0 L 40 0 z M 149.99609 15 C 167.47709 15 181.64453 29.166814 181.64453 46.632812 L 181.64453 194.37695 C 193.33853 203.69495 200.85442 218.03725 200.85742 234.15625 C 200.85742 262.23625 178.09305 285 149.99805 285 C 121.90605 285 99.142578 262.23625 99.142578 234.15625 C 99.142578 218.66125 106.10239 204.80656 117.02539 195.47656 L 117.02539 46.632812 C 117.02539 29.169815 132.54209 15 149.99609 15 z M 149.99609 36.167969 C 140.89109 36.167969 133.25586 43.550064 133.25586 52.664062 L 133.25586 205.10742 C 123.16686 210.93342 116.29102 221.71503 116.29102 234.20703 C 116.29102 252.82503 131.38709 267.92188 149.99609 267.92188 C 168.63809 267.92188 183.70703 252.82113 183.70703 234.20312 C 183.70703 221.72015 176.84472 210.94228 166.76172 205.11328 L 166.76172 52.664062 C 166.76172 43.547065 159.10109 36.167969 149.99609 36.167969 z M 141.625 67.578125 L 158.36523 67.578125 L 158.36523 72.222656 L 141.625 72.222656 L 141.625 67.578125 z M 141.625 110.67578 L 158.36523 110.67578 L 158.36523 115.3418 L 141.625 115.3418 L 141.625 110.67578 z M 141.625 153.79297 L 158.36523 153.79297 L 158.36523 158.44727 L 141.625 158.44727 L 141.625 153.79297 z M 140.99219 179.23828 L 159.00977 179.23828 L 159.00977 212.07617 C 167.75177 215.64017 173.90625 224.18913 173.90625 234.20312 C 173.90625 247.41512 163.22309 258.12305 149.99609 258.12305 C 136.79609 258.12305 126.08789 247.41213 126.08789 234.20312 C 126.08789 224.18914 132.25919 215.64017 140.99219 212.07617 L 140.99219 179.23828 z "
     id="rect8465" /><g
     id="g8467"
     transform="matrix(3,0,0,3,0,-600)" /></svg>