<svg xmlns="http://www.w3.org/2000/svg" xmlns:xlink="http://www.w3.org/1999/xlink" version="1.1" id="Layer_1" x="0px" y="0px" width="100px" height="100px" viewBox="0 0 100 100" enable-background="new 0 0 100 100" xml:space="preserve">
<rect fill="none" width="100" height="100"/>
<g>
	<g>
		<path d="M54.473,95c-0.957,0-1.87-0.563-2.265-1.501l-12.333-29.44l-12.055,12.85c-0.686,0.729-1.753,0.968-2.69,0.597    c-0.932-0.368-1.545-1.268-1.545-2.276V7.452c0-0.994,0.597-1.885,1.512-2.264c0.915-0.382,1.966-0.172,2.669,0.53l47.932,47.925    c0.707,0.718,0.914,1.788,0.515,2.71c-0.402,0.922-1.334,1.519-2.33,1.475l-17.541-0.573l12.307,29.354    c0.256,0.6,0.256,1.272,0.01,1.877c-0.245,0.6-0.722,1.081-1.321,1.332l-11.923,4.988C55.108,94.941,54.788,95,54.473,95z     M40.674,57.173c0.149,0,0.29,0.016,0.436,0.041c0.819,0.148,1.506,0.699,1.826,1.465l12.849,30.665l7.396-3.099L50.344,55.626    c-0.323-0.769-0.235-1.649,0.243-2.338c0.472-0.69,1.288-1.1,2.099-1.064l15.154,0.501L28.485,13.37v55.664l10.402-11.086    C39.358,57.449,40.003,57.173,40.674,57.173z"/>
	</g>
	<g>
		<path d="M54.473,95c-0.957,0-1.87-0.563-2.265-1.501l-12.333-29.44l-12.055,12.85c-0.686,0.729-1.753,0.968-2.69,0.597    c-0.932-0.368-1.545-1.268-1.545-2.276V7.452c0-0.994,0.597-1.885,1.512-2.264c0.915-0.382,1.966-0.172,2.669,0.53l47.932,47.925    c0.707,0.718,0.914,1.788,0.515,2.71c-0.402,0.922-1.334,1.519-2.33,1.475l-17.541-0.573l12.307,29.354    c0.256,0.6,0.256,1.272,0.01,1.877c-0.245,0.6-0.722,1.081-1.321,1.332l-11.923,4.988C55.108,94.941,54.788,95,54.473,95z     M40.674,57.173c0.149,0,0.29,0.016,0.436,0.041c0.819,0.148,1.506,0.699,1.826,1.465l12.849,30.665l7.396-3.099L50.344,55.626    c-0.323-0.769-0.235-1.649,0.243-2.338c0.472-0.69,1.288-1.1,2.099-1.064l15.154,0.501L28.485,13.37v55.664l10.402-11.086    C39.358,57.449,40.003,57.173,40.674,57.173z"/>
	</g>
</g>
</svg>